# Blender v2.76 (sub 0) OBJ File: 'ChairHandle.blend'
# www.blender.org
mtllib ChairHandle.mtl
o HandleChair_Cube.017
v -0.196822 -0.005166 0.192378
v -0.189614 0.251984 0.185170
v -0.196822 -0.005166 0.111095
v -0.189614 0.251984 0.118303
v -0.115539 -0.005166 0.192378
v -0.122747 0.251984 0.185170
v -0.115539 -0.005166 0.111095
v -0.122747 0.251984 0.118303
v -0.189614 0.318726 0.185170
v -0.122747 0.318726 0.118303
v -0.218945 0.375274 0.216303
v -0.218945 0.318726 0.216303
v -0.158512 0.375274 0.156599
v -0.158512 0.375274 0.216303
v -0.218945 0.375274 0.156599
v -0.158512 0.459648 0.156599
v -0.218945 0.459648 0.216303
v -0.158512 0.459648 0.216303
v -0.218945 0.459648 0.156599
v -0.158512 0.505459 0.156599
v -0.218945 0.505459 0.216303
v -0.158512 0.505459 0.216303
v -0.218945 0.505459 0.156599
v -0.158512 0.632549 0.216303
v -0.218945 0.632549 0.216303
v -0.158512 0.632549 0.156599
v -0.218945 0.632549 0.156599
v -0.158512 0.688687 0.156599
v -0.218945 0.688687 0.156599
v 0.196822 -0.005166 0.192378
v 0.189614 0.251984 0.185170
v 0.196822 -0.005166 0.111095
v 0.189614 0.251984 0.118303
v 0.115539 -0.005166 0.192378
v 0.122747 0.251984 0.185170
v 0.115539 -0.005166 0.111095
v 0.122747 0.251984 0.118303
v 0.189614 0.318726 0.185170
v 0.122747 0.318726 0.118303
v 0.000000 0.251984 0.118303
v 0.000000 0.251984 0.185170
v 0.000000 0.318726 0.118303
v 0.000000 0.318726 0.185170
v 0.218945 0.375274 0.216303
v 0.000000 0.375274 0.216303
v 0.218945 0.318726 0.216303
v 0.000000 0.318726 0.216303
v 0.158512 0.375274 0.156599
v 0.158512 0.375274 0.216303
v 0.218945 0.375274 0.156599
v 0.158512 0.459648 0.156599
v 0.218945 0.459648 0.216303
v 0.158512 0.459648 0.216303
v 0.218945 0.459648 0.156599
v 0.158512 0.505459 0.156599
v 0.158512 0.505459 0.216303
v -0.196822 -0.005166 -0.192378
v -0.189614 0.251984 -0.185170
v -0.196822 -0.005166 -0.111095
v -0.189614 0.251984 -0.118303
v -0.115539 -0.005166 -0.192378
v -0.122747 0.251984 -0.185170
v -0.115539 -0.005166 -0.111095
v -0.122747 0.251984 -0.118303
v -0.189614 0.318726 -0.185170
v -0.122747 0.318726 -0.118303
v -0.189614 0.251984 0.000000
v -0.122747 0.251984 0.000000
v -0.189614 0.318726 0.000000
v -0.122747 0.318726 0.000000
v -0.218945 0.375274 -0.216303
v -0.218945 0.375274 0.000000
v -0.218945 0.318726 -0.216303
v -0.218945 0.318726 0.000000
v -0.158512 0.375274 -0.156599
v -0.158512 0.375274 -0.216303
v -0.218945 0.375274 -0.156599
v -0.158512 0.459648 -0.156599
v -0.218945 0.459648 -0.216303
v -0.158512 0.459648 -0.216303
v -0.218945 0.459648 -0.156599
v -0.158512 0.505459 -0.156599
v -0.218945 0.505459 -0.216303
v -0.158512 0.505459 -0.216303
v -0.218945 0.505459 -0.156599
v -0.158512 0.632549 -0.216303
v -0.218945 0.632549 -0.216303
v -0.158512 0.632549 -0.156599
v -0.218945 0.632549 -0.156599
v -0.158512 0.688687 -0.156599
v -0.218945 0.688687 -0.156599
v 0.196822 -0.005166 -0.192378
v 0.189614 0.251984 -0.185170
v 0.196822 -0.005166 -0.111095
v 0.189614 0.251984 -0.118303
v 0.115539 -0.005166 -0.192378
v 0.122747 0.251984 -0.185170
v 0.115539 -0.005166 -0.111095
v 0.122747 0.251984 -0.118303
v 0.189614 0.318726 -0.185170
v 0.122747 0.318726 -0.118303
v 0.189614 0.251984 0.000000
v 0.122747 0.251984 0.000000
v 0.189614 0.318726 0.000000
v 0.122747 0.318726 0.000000
v 0.000000 0.251984 -0.118303
v 0.000000 0.251984 -0.185170
v 0.000000 0.318726 -0.118303
v 0.000000 0.318726 -0.185170
v 0.218945 0.375274 -0.216303
v 0.218945 0.375274 0.000000
v 0.000000 0.375274 -0.216303
v 0.000000 0.318726 0.000000
v 0.000000 0.375274 0.000000
v 0.218945 0.318726 -0.216303
v 0.000000 0.318726 -0.216303
v 0.218945 0.318726 0.000000
v 0.158512 0.375274 -0.156599
v 0.158512 0.375274 -0.216303
v 0.218945 0.375274 -0.156599
v 0.158512 0.459648 -0.156599
v 0.218945 0.459648 -0.216303
v 0.158512 0.459648 -0.216303
v 0.218945 0.459648 -0.156599
v 0.158512 0.505459 -0.156599
v 0.158512 0.505459 -0.216303
vn -0.999600 0.028000 0.000000
vn 0.000000 0.028000 -0.999600
vn 0.999600 0.028000 0.000000
vn 0.000000 0.028000 0.999600
vn 0.000000 -1.000000 0.000000
vn 1.000000 0.000000 0.000000
vn 0.000000 0.000000 -1.000000
vn 0.000000 0.000000 1.000000
vn -1.000000 0.000000 0.000000
vn 0.000000 1.000000 0.000000
vn 0.604100 0.796900 -0.000000
usemtl DarkWood.010
s off
f 2//1 4//1 3//1 1//1
f 4//2 8//2 7//2 3//2
f 8//3 6//3 5//3 7//3
f 6//4 2//4 1//4 5//4
f 1//5 3//5 7//5 5//5
f 6//5 8//5 40//5 41//5
f 8//5 4//5 67//5 68//5
f 10//6 8//6 68//6 70//6
f 8//7 10//7 42//7 40//7
f 9//8 6//8 41//8 43//8
f 2//8 6//8 9//8
f 4//9 9//9 69//9 67//9
f 4//9 2//9 9//9
f 31//3 30//3 32//3 33//3
f 33//2 32//2 36//2 37//2
f 37//1 36//1 34//1 35//1
f 35//4 34//4 30//4 31//4
f 30//5 34//5 36//5 32//5
f 35//5 41//5 40//5 37//5
f 37//5 103//5 102//5 33//5
f 39//9 105//9 103//9 37//9
f 37//7 40//7 42//7 39//7
f 38//8 43//8 41//8 35//8
f 31//8 38//8 35//8
f 33//6 102//6 104//6 38//6
f 33//6 38//6 31//6
f 58//1 57//1 59//1 60//1
f 60//4 59//4 63//4 64//4
f 64//3 63//3 61//3 62//3
f 62//2 61//2 57//2 58//2
f 57//5 61//5 63//5 59//5
f 62//5 107//5 106//5 64//5
f 64//5 68//5 67//5 60//5
f 66//6 70//6 68//6 64//6
f 64//8 106//8 108//8 66//8
f 65//7 109//7 107//7 62//7
f 58//7 65//7 62//7
f 60//9 67//9 69//9 65//9
f 60//9 65//9 58//9
f 93//3 95//3 94//3 92//3
f 95//4 99//4 98//4 94//4
f 99//1 97//1 96//1 98//1
f 97//2 93//2 92//2 96//2
f 92//5 94//5 98//5 96//5
f 97//5 99//5 106//5 107//5
f 99//5 95//5 102//5 103//5
f 101//9 99//9 103//9 105//9
f 99//8 101//8 108//8 106//8
f 100//7 97//7 107//7 109//7
f 93//7 97//7 100//7
f 95//6 100//6 104//6 102//6
f 95//6 93//6 100//6
usemtl Wood.012
f 14//10 45//10 114//10 13//10
f 69//5 9//5 12//5 74//5
f 9//5 43//5 47//5 12//5
f 42//5 10//5 113//5
f 10//5 70//5 113//5
f 72//10 15//10 13//10 114//10
f 74//9 12//9 11//9 15//9 72//9
f 12//8 47//8 45//8 14//8 11//8
f 15//9 11//9 17//9 19//9
f 11//8 14//8 18//8 17//8
f 19//9 17//9 21//9 23//9
f 13//7 15//7 19//7 16//7
f 14//6 13//6 16//6 18//6
f 21//8 22//8 24//8 25//8
f 25//10 24//10 26//10 27//10
f 17//8 18//8 22//8 21//8
f 23//9 21//9 25//9 27//9
f 81//9 19//9 23//9 85//9
f 23//9 27//9 89//9 85//9
f 29//10 28//10 90//10 91//10
f 22//6 20//6 26//6 24//6
f 27//8 26//8 28//8 29//8
f 53//5 18//5 16//5 51//5
f 49//10 48//10 114//10 45//10
f 104//5 117//5 46//5 38//5
f 38//5 46//5 47//5 43//5
f 42//5 113//5 39//5
f 39//5 113//5 105//5
f 111//10 114//10 48//10 50//10
f 117//6 111//6 50//6 44//6 46//6
f 46//8 44//8 49//8 45//8 47//8
f 50//6 54//6 52//6 44//6
f 44//8 52//8 53//8 49//8
f 121//8 124//8 125//8
f 48//7 51//7 54//7 50//7
f 49//9 53//9 51//9 48//9
f 51//7 55//7 54//7
f 76//10 75//10 114//10 112//10
f 69//5 74//5 73//5 65//5
f 65//5 73//5 116//5 109//5
f 108//5 113//5 66//5
f 66//5 113//5 70//5
f 72//10 114//10 75//10 77//10
f 74//9 72//9 77//9 71//9 73//9
f 73//7 71//7 76//7 112//7 116//7
f 77//9 81//9 79//9 71//9
f 71//7 79//7 80//7 76//7
f 81//9 85//9 83//9 79//9
f 75//8 78//8 81//8 77//8
f 76//6 80//6 78//6 75//6
f 83//7 87//7 86//7 84//7
f 87//10 89//10 88//10 86//10
f 79//7 83//7 84//7 80//7
f 78//5 16//5 19//5 81//5
f 85//9 89//9 87//9 83//9
f 27//9 29//9 91//9 89//9
f 82//6 88//6 26//6 20//6
f 84//6 86//6 88//6 82//6
f 26//6 88//6 90//6 28//6
f 89//7 91//7 90//7 88//7
f 121//8 125//8 82//8 78//8
f 20//6 16//6 78//6 82//6
f 51//7 16//7 20//7 55//7
f 123//5 121//5 78//5 80//5
f 119//10 112//10 114//10 118//10
f 104//5 100//5 115//5 117//5
f 100//5 109//5 116//5 115//5
f 108//5 101//5 113//5
f 101//5 105//5 113//5
f 111//10 120//10 118//10 114//10
f 117//6 115//6 110//6 120//6 111//6
f 115//7 116//7 112//7 119//7 110//7
f 120//6 110//6 122//6 124//6
f 110//7 119//7 123//7 122//7
f 84//7 126//7 123//7 80//7
f 118//8 120//8 124//8 121//8
f 119//9 118//9 121//9 123//9
f 122//7 123//7 126//7
f 54//11 55//11 56//11 52//11
f 82//10 125//10 126//10 84//10
f 20//10 22//10 56//10 55//10
f 22//8 18//8 53//8 56//8
f 52//8 56//8 53//8
f 124//11 122//11 126//11 125//11
l 113 114
