# Blender v2.76 (sub 0) OBJ File: 'Closet2.blend'
# www.blender.org
mtllib Closet2.mtl
o Closet2_Cube.003
v -0.198335 0.313065 0.316639
v -0.205033 0.929790 0.327332
v 0.198335 0.313065 0.316639
v 0.205033 0.929790 0.327332
v -0.198335 0.283256 0.316639
v 0.198335 0.283256 0.316639
v -0.198335 0.141987 0.316639
v 0.198335 0.141987 0.316639
v -0.198335 0.114355 0.316639
v 0.198335 0.114355 0.316639
v -0.221422 0.314800 0.335068
v 0.221422 0.314800 0.335068
v -0.221422 0.281521 0.335068
v 0.221422 0.281521 0.335068
v -0.223859 0.143405 0.337730
v 0.223859 0.143405 0.337730
v -0.223859 0.112938 0.337730
v 0.223859 0.112938 0.337730
v -0.198335 0.313065 0.158320
v 0.205033 0.929790 0.163666
v -0.198335 0.283256 0.158320
v -0.205033 0.929790 0.163666
v 0.198335 0.313065 0.158320
v 0.198335 0.283256 0.158320
v -0.198335 0.141987 0.158320
v 0.198335 0.141987 0.158320
v -0.221422 0.314800 0.167534
v -0.198335 0.114355 0.158320
v 0.198335 0.114355 0.158320
v -0.221422 0.281521 0.167534
v 0.221422 0.314800 0.167534
v 0.221422 0.281521 0.167534
v -0.223859 0.143405 0.168865
v 0.223859 0.143405 0.168865
v -0.223859 0.112938 0.168865
v 0.223859 0.112938 0.168865
v 0.198335 0.156114 0.300807
v 0.198335 0.269129 0.300807
v 0.198335 0.269129 0.174152
v 0.198335 0.156114 0.174152
v 0.198335 0.269129 0.142488
v 0.198335 0.156114 0.142488
v 0.228335 0.156114 0.300807
v 0.228335 0.269129 0.300807
v 0.228335 0.269129 0.174152
v 0.228335 0.156114 0.174152
v 0.228335 0.269129 0.142488
v 0.228335 0.156114 0.142488
v 0.228335 0.201320 0.250145
v 0.228335 0.223923 0.250145
v 0.228335 0.223923 0.224814
v 0.228335 0.201320 0.224814
v 0.228335 0.223923 0.012910
v 0.228335 0.201320 0.012910
v 0.240376 0.201320 0.250145
v 0.240376 0.223923 0.250145
v 0.240376 0.223923 0.224814
v 0.240376 0.201320 0.224814
v 0.240376 0.223923 0.012910
v 0.240376 0.201320 0.012910
v 0.205033 0.963818 0.163666
v 0.205033 0.963818 0.327332
v -0.205033 0.963818 0.327332
v -0.205033 0.963818 0.163666
v 0.226871 0.927978 0.163666
v 0.226871 0.927978 0.344764
v -0.226871 0.927978 0.344764
v -0.226871 0.927978 0.163666
v 0.226871 0.965630 0.163666
v 0.226871 0.965630 0.344764
v -0.226871 0.965630 0.344764
v -0.226871 0.965630 0.163666
v 0.224726 0.991471 0.162053
v 0.202889 0.989659 0.162053
v 0.205033 0.940170 0.163666
v 0.205033 0.940170 0.327332
v -0.205033 0.940170 0.327332
v -0.205033 0.940170 0.163666
v 0.204476 0.908332 0.154929
v 0.204476 0.908332 0.291397
v 0.198892 0.334523 0.282481
v 0.198892 0.334523 0.150471
v 0.198892 0.334523 0.018461
v 0.204476 0.908332 0.018461
v 0.234475 0.908040 0.154929
v 0.234475 0.908040 0.291397
v 0.228890 0.334232 0.282481
v 0.228890 0.334232 0.150471
v 0.228890 0.334232 0.018461
v 0.234475 0.908040 0.018461
v 0.231124 0.563755 0.063266
v 0.231124 0.563755 0.036864
v 0.232241 0.678516 0.036864
v 0.232241 0.678516 0.064157
v 0.247500 0.563595 0.063266
v 0.247500 0.563595 0.036864
v 0.248617 0.678357 0.036864
v 0.248617 0.678357 0.064157
v -0.001095 0.929790 0.327332
v -0.001095 0.313065 0.316639
v -0.001095 0.283256 0.316639
v -0.001095 0.141987 0.316639
v -0.001095 0.114355 0.316639
v -0.001095 0.314800 0.335068
v -0.001095 0.281521 0.335068
v -0.001095 0.143405 0.337730
v -0.001095 0.112938 0.337730
v -0.001095 0.114355 0.158320
v -0.001095 0.963818 0.327332
v -0.001095 0.927978 0.344764
v -0.001095 0.965630 0.344764
v -0.001095 0.940170 0.327332
v -0.001095 0.940170 0.163666
v 0.105296 0.114355 0.297837
v 0.172069 0.114355 0.297837
v 0.172069 0.114355 0.244829
v 0.105296 0.114355 0.244829
v -0.170476 0.114355 0.244829
v -0.170476 0.114355 0.297837
v -0.104436 0.114355 0.297837
v -0.104436 0.114355 0.244829
v 0.121990 -0.004362 0.284585
v 0.155376 -0.004362 0.284585
v 0.155376 -0.004362 0.258081
v 0.121990 -0.004362 0.258081
v -0.153966 -0.004362 0.258081
v -0.153966 -0.004362 0.284585
v -0.120946 -0.004362 0.284585
v -0.120946 -0.004362 0.258081
v -0.198335 0.313065 -0.316639
v -0.205033 0.929790 -0.327332
v 0.198335 0.313065 -0.316639
v 0.205033 0.929790 -0.327332
v -0.198335 0.283256 -0.316639
v 0.198335 0.283256 -0.316639
v 0.205033 0.929790 0.000000
v 0.198335 0.313065 0.000000
v -0.198335 0.141987 -0.316639
v 0.198335 0.141987 -0.316639
v -0.198335 0.114355 -0.316639
v 0.198335 0.114355 -0.316639
v -0.221422 0.314800 -0.335068
v 0.221422 0.314800 -0.335068
v -0.221422 0.281521 -0.335068
v 0.221422 0.281521 -0.335068
v -0.223859 0.143405 -0.337730
v 0.223859 0.143405 -0.337730
v -0.223859 0.112938 -0.337730
v 0.223859 0.112938 -0.337730
v -0.198335 0.313065 -0.158320
v 0.205033 0.929790 -0.163666
v -0.198335 0.283256 -0.158320
v -0.205033 0.929790 -0.163666
v 0.198335 0.313065 -0.158320
v 0.198335 0.283256 -0.158320
v -0.198335 0.141987 -0.158320
v 0.198335 0.141987 -0.158320
v -0.221422 0.314800 -0.167534
v -0.198335 0.114355 -0.158320
v 0.198335 0.114355 -0.158320
v -0.221422 0.281521 -0.167534
v 0.221422 0.314800 -0.167534
v 0.221422 0.281521 -0.167534
v -0.223859 0.143405 -0.168865
v 0.223859 0.143405 -0.168865
v -0.223859 0.112938 -0.168865
v 0.223859 0.112938 -0.168865
v 0.198335 0.156114 -0.300807
v 0.198335 0.269129 -0.300807
v 0.198335 0.269129 -0.174152
v 0.198335 0.156114 -0.174152
v 0.198335 0.269129 -0.142488
v 0.198335 0.156114 -0.142488
v 0.228335 0.156114 -0.300807
v 0.228335 0.269129 -0.300807
v 0.228335 0.269129 -0.174152
v 0.228335 0.156114 -0.174152
v 0.228335 0.269129 -0.142488
v 0.228335 0.156114 -0.142488
v 0.228335 0.201320 -0.250145
v 0.228335 0.223923 -0.250145
v 0.228335 0.223923 -0.224814
v 0.228335 0.201320 -0.224814
v 0.228335 0.223923 -0.012910
v 0.228335 0.201320 -0.012910
v 0.240376 0.201320 -0.250145
v 0.240376 0.223923 -0.250145
v 0.240376 0.223923 -0.224814
v 0.240376 0.201320 -0.224814
v 0.240376 0.223923 -0.012910
v 0.240376 0.201320 -0.012910
v 0.205033 0.963818 -0.163666
v 0.205033 0.963818 -0.327332
v -0.205033 0.963818 -0.327332
v -0.205033 0.963818 -0.163666
v 0.226871 0.927978 -0.163666
v 0.226871 0.927978 -0.344764
v -0.226871 0.927978 -0.344764
v -0.226871 0.927978 -0.163666
v 0.226871 0.965630 -0.163666
v 0.226871 0.965630 -0.344764
v -0.226871 0.965630 -0.344764
v -0.226871 0.965630 -0.163666
v 0.224726 0.991471 -0.162053
v 0.202889 0.989659 -0.162053
v 0.205033 0.940170 -0.163666
v 0.205033 0.940170 -0.327332
v -0.205033 0.940170 -0.327332
v -0.205033 0.940170 -0.163666
v 0.204476 0.908332 -0.154929
v 0.204476 0.908332 -0.291397
v 0.198892 0.334523 -0.282481
v 0.198892 0.334523 -0.150471
v 0.198892 0.334523 -0.018461
v 0.204476 0.908332 -0.018461
v 0.234475 0.908040 -0.154929
v 0.234475 0.908040 -0.291397
v 0.228890 0.334232 -0.282481
v 0.228890 0.334232 -0.150471
v 0.228890 0.334232 -0.018461
v 0.234475 0.908040 -0.018461
v 0.231124 0.563755 -0.063266
v 0.231124 0.563755 -0.036864
v 0.232241 0.678516 -0.036864
v 0.232241 0.678516 -0.064157
v 0.247500 0.563595 -0.063266
v 0.247500 0.563595 -0.036864
v 0.248617 0.678357 -0.036864
v 0.248617 0.678357 -0.064157
v -0.001095 0.929790 -0.327332
v -0.001095 0.313065 -0.316639
v -0.001095 0.283256 -0.316639
v -0.001095 0.141987 -0.316639
v -0.001095 0.114355 -0.316639
v -0.001095 0.314800 -0.335068
v -0.001095 0.281521 -0.335068
v -0.001095 0.143405 -0.337730
v -0.001095 0.112938 -0.337730
v -0.001095 0.114355 -0.158320
v -0.001095 0.963818 -0.327332
v -0.001095 0.927978 -0.344764
v -0.001095 0.965630 -0.344764
v -0.001095 0.940170 -0.327332
v -0.001095 0.940170 -0.163666
v 0.105296 0.114355 -0.297837
v 0.172069 0.114355 -0.297837
v 0.172069 0.114355 -0.244829
v 0.105296 0.114355 -0.244829
v -0.170476 0.114355 -0.244829
v -0.170476 0.114355 -0.297837
v -0.104436 0.114355 -0.297837
v -0.104436 0.114355 -0.244829
v 0.121990 -0.004362 -0.284585
v 0.155376 -0.004362 -0.284585
v 0.155376 -0.004362 -0.258081
v 0.121990 -0.004362 -0.258081
v -0.153966 -0.004362 -0.258081
v -0.153966 -0.004362 -0.284585
v -0.120946 -0.004362 -0.284585
v -0.120946 -0.004362 -0.258081
vn 0.999700 -0.025900 0.000000
vn 0.000000 -0.017300 0.999800
vn 0.000000 0.000000 1.000000
vn -1.000000 0.000000 0.000000
vn 1.000000 0.000000 0.000000
vn 0.000000 -1.000000 0.000000
vn -0.999900 -0.010900 0.000000
vn 0.000000 0.000000 -1.000000
vn 0.000000 1.000000 0.000000
vn 0.999900 -0.010300 0.000000
vn 0.009700 1.000000 0.000000
vn 1.000000 -0.009700 0.000000
vn -0.009700 -1.000000 0.000000
vn -0.000100 -0.007800 1.000000
vn 0.000000 -0.110900 -0.993800
vn 0.990300 -0.139200 0.000000
vn -0.990500 -0.137700 0.000000
vn 0.990500 -0.137700 0.000000
vn 0.000000 -0.110900 0.993800
vn -0.990300 -0.139200 0.000000
vn 0.000000 -0.017300 -0.999800
vn -0.000100 -0.007800 -1.000000
vn 0.074900 0.997200 0.000000
vn 0.000000 0.995600 -0.093700
vn 0.000000 -0.995600 -0.093700
vn -0.996600 -0.082700 0.000000
vn 0.000000 0.997700 -0.067100
vn -0.055500 -0.998500 0.000000
vn 0.055500 -0.998500 0.000000
vn -0.055500 0.998500 0.000000
vn 0.074900 -0.997200 0.000000
vn -0.074900 0.997200 0.000000
vn 0.000000 -0.997700 -0.067100
vn 0.055500 0.998500 0.000000
vn -0.074900 -0.997200 0.000000
vn 0.082700 0.996600 0.000000
vn 0.082700 -0.996600 0.000000
vn 0.000000 -0.994600 -0.103400
vn -0.082700 0.996600 0.000000
vn -0.082700 -0.996600 0.000000
vn 0.000000 0.994600 -0.103400
vn 0.996600 0.082700 0.000000
vn -0.005100 0.061900 0.998100
vn -0.000200 -0.015500 0.999900
vn 0.000000 0.995600 0.093700
vn 0.000000 -0.995600 0.093700
vn 0.000000 0.997700 0.067100
vn 0.000000 -0.997700 0.067100
vn 0.000000 -0.994600 0.103400
vn 0.000000 0.994600 0.103400
vn -0.005100 0.061900 -0.998100
vn -0.000200 -0.015500 -0.999900
usemtl DarkWood.001
s off
f 136//1 20//1 79//1 84//1
f 99//2 2//2 1//2 100//2
f 101//3 5//3 7//3 102//3
f 152//4 156//4 25//4 21//4
f 26//5 24//5 39//5 40//5
f 239//6 160//6 29//6 108//6
f 41//5 172//5 155//5 24//5
f 103//6 108//6 117//6 114//6
f 5//4 21//4 25//4 7//4
f 24//5 26//5 42//5 41//5
f 2//7 22//7 19//7 1//7
f 23//1 137//1 83//1 82//1
f 6//5 8//5 37//5 38//5
f 8//5 26//5 40//5 37//5
f 24//5 6//5 38//5 39//5
f 153//7 150//7 19//7 22//7
f 157//5 173//5 42//5 26//5
f 50//3 49//3 55//3 56//3
f 53//3 54//3 60//3 59//3
f 60//5 191//5 190//5 59//5
f 57//5 56//5 55//5 58//5
f 185//6 191//6 60//6 54//6
f 52//8 51//8 57//8 58//8
f 51//9 50//9 56//9 57//9
f 59//9 190//9 184//9 53//9
f 49//6 52//6 58//6 55//6
f 159//6 239//6 108//6 28//6
f 244//9 209//9 78//9 113//9
f 112//9 113//9 78//9 77//9
f 4//10 3//10 81//10 80//10
f 3//1 23//1 82//1 81//1
f 137//10 136//10 84//10 83//10
f 20//1 4//1 80//1 79//1
f 93//11 94//11 98//11 97//11
f 97//12 98//12 95//12 96//12
f 91//13 92//13 96//13 95//13
f 94//14 91//14 95//14 98//14
f 92//8 93//8 97//8 96//8
f 76//9 75//9 113//9 112//9
f 108//6 103//6 120//6 121//6
f 206//9 244//9 113//9 75//9
f 6//3 101//3 102//3 8//3
f 4//2 99//2 100//2 3//2
f 118//15 121//15 129//15 126//15
f 10//6 103//6 114//6 115//6
f 29//6 10//6 115//6 116//6
f 108//6 29//6 116//6 117//6
f 116//16 115//16 123//16 124//16
f 28//6 108//6 121//6 118//6
f 103//6 9//6 119//6 120//6
f 9//6 28//6 118//6 119//6
f 122//6 125//6 124//6 123//6
f 127//6 126//6 129//6 128//6
f 119//17 118//17 126//17 127//17
f 117//15 116//15 124//15 125//15
f 121//18 120//18 128//18 129//18
f 115//19 114//19 122//19 123//19
f 120//19 119//19 127//19 128//19
f 114//20 117//20 125//20 122//20
f 136//1 215//1 210//1 151//1
f 230//21 231//21 130//21 131//21
f 232//8 233//8 138//8 134//8
f 157//5 171//5 170//5 155//5
f 234//6 245//6 248//6 239//6
f 134//4 138//4 156//4 152//4
f 155//5 172//5 173//5 157//5
f 131//7 130//7 150//7 153//7
f 154//1 213//1 214//1 137//1
f 135//5 169//5 168//5 139//5
f 139//5 168//5 171//5 157//5
f 155//5 170//5 169//5 135//5
f 181//8 187//8 186//8 180//8
f 184//8 190//8 191//8 185//8
f 188//5 189//5 186//5 187//5
f 183//3 189//3 188//3 182//3
f 182//9 188//9 187//9 181//9
f 180//6 186//6 189//6 183//6
f 243//9 208//9 209//9 244//9
f 133//10 211//10 212//10 132//10
f 132//1 212//1 213//1 154//1
f 137//10 214//10 215//10 136//10
f 151//1 210//1 211//1 133//1
f 224//11 228//11 229//11 225//11
f 228//12 227//12 226//12 229//12
f 222//13 226//13 227//13 223//13
f 225//22 229//22 226//22 222//22
f 223//3 227//3 228//3 224//3
f 207//9 243//9 244//9 206//9
f 239//6 252//6 251//6 234//6
f 135//8 139//8 233//8 232//8
f 133//21 132//21 231//21 230//21
f 249//19 257//19 260//19 252//19
f 141//6 246//6 245//6 234//6
f 160//6 247//6 246//6 141//6
f 239//6 248//6 247//6 160//6
f 247//16 255//16 254//16 246//16
f 159//6 249//6 252//6 239//6
f 234//6 251//6 250//6 140//6
f 140//6 250//6 249//6 159//6
f 253//6 254//6 255//6 256//6
f 258//6 259//6 260//6 257//6
f 250//17 258//17 257//17 249//17
f 248//19 256//19 255//19 247//19
f 252//18 260//18 259//18 251//18
f 246//15 254//15 253//15 245//15
f 251//15 259//15 258//15 250//15
f 245//20 253//20 256//20 248//20
usemtl Wood.003
f 150//23 158//23 27//23 19//23
f 100//24 1//24 11//24 104//24
f 101//25 6//25 14//25 105//25
f 74//26 205//26 192//26 61//26
f 102//27 7//27 15//27 106//27
f 160//28 167//28 36//28 29//28
f 28//29 9//29 17//29 35//29
f 34//30 165//30 157//30 26//30
f 31//5 12//5 14//5 32//5
f 104//3 11//3 13//3 105//3
f 32//5 163//5 162//5 31//5
f 30//31 161//31 152//31 21//31
f 21//31 5//31 13//31 30//31
f 23//32 3//32 12//32 31//32
f 106//3 15//3 17//3 107//3
f 34//5 16//5 18//5 36//5
f 35//29 166//29 159//29 28//29
f 103//33 10//33 18//33 107//33
f 26//30 8//30 16//30 34//30
f 173//6 179//6 48//6 42//6
f 7//34 25//34 33//34 15//34
f 158//4 161//4 30//4 27//4
f 15//4 33//4 35//4 17//4
f 164//4 166//4 35//4 33//4
f 36//5 167//5 165//5 34//5
f 1//23 19//23 27//23 11//23
f 11//4 27//4 30//4 13//4
f 155//35 163//35 32//35 24//35
f 10//28 29//28 36//28 18//28
f 156//34 164//34 33//34 25//34
f 195//36 203//36 72//36 64//36
f 6//35 24//35 32//35 14//35
f 37//6 40//6 46//6 43//6
f 53//5 184//5 178//5 47//5
f 179//5 185//5 54//5 48//5
f 43//5 46//5 52//5 49//5
f 38//3 37//3 43//3 44//3
f 40//8 39//8 45//8 46//8
f 39//9 38//9 44//9 45//9
f 47//5 48//5 54//5 53//5
f 41//3 42//3 48//3 47//3
f 44//5 43//5 49//5 50//5
f 46//5 45//5 51//5 52//5
f 45//5 44//5 50//5 51//5
f 47//9 178//9 172//9 41//9
f 192//4 206//4 75//4 61//4
f 68//37 199//37 153//37 22//37
f 99//38 4//38 66//38 110//38
f 61//39 62//39 70//39 69//39
f 196//5 200//5 69//5 65//5
f 66//5 65//5 69//5 70//5
f 110//3 66//3 70//3 111//3
f 68//4 67//4 71//4 72//4
f 72//4 203//4 199//4 68//4
f 151//40 196//40 65//40 20//40 136//40
f 109//41 63//41 71//41 111//41
f 4//40 20//40 65//40 66//40
f 63//36 64//36 72//36 71//36
f 73//39 204//39 205//39 74//39
f 22//37 2//37 67//37 68//37
f 200//42 204//42 73//42 69//42
f 61//43 69//43 73//43 74//43
f 78//5 209//5 195//5 64//5
f 62//4 61//4 75//4 76//4
f 64//5 63//5 77//5 78//5
f 109//8 62//8 76//8 112//8
f 84//11 79//11 85//11 90//11
f 80//44 81//44 87//44 86//44
f 85//12 86//12 87//12 88//12
f 89//12 90//12 93//12 92//12
f 82//13 83//13 89//13 88//13
f 79//11 80//11 86//11 85//11
f 81//13 82//13 88//13 87//13
f 83//8 84//8 90//8 89//8
f 85//12 88//12 91//12 94//12
f 90//12 85//12 94//12 93//12
f 88//12 89//12 92//12 91//12
f 63//8 109//8 112//8 77//8
f 62//41 109//41 111//41 70//41
f 67//3 110//3 111//3 71//3
f 2//38 99//38 110//38 67//38
f 9//33 103//33 107//33 17//33
f 16//3 106//3 107//3 18//3
f 12//3 104//3 105//3 14//3
f 8//27 102//27 106//27 16//27
f 5//25 101//25 105//25 13//25
f 3//24 100//24 104//24 12//24
f 231//45 235//45 142//45 130//45
f 232//46 236//46 145//46 135//46
f 233//47 237//47 146//47 138//47
f 159//29 166//29 148//29 140//29
f 162//5 163//5 145//5 143//5
f 235//8 236//8 144//8 142//8
f 152//31 161//31 144//31 134//31
f 154//32 162//32 143//32 132//32
f 237//8 238//8 148//8 146//8
f 165//5 167//5 149//5 147//5
f 234//48 238//48 149//48 141//48
f 157//30 165//30 147//30 139//30
f 138//34 146//34 164//34 156//34
f 146//4 148//4 166//4 164//4
f 130//23 142//23 158//23 150//23
f 142//4 144//4 161//4 158//4
f 141//28 149//28 167//28 160//28
f 135//35 145//35 163//35 155//35
f 168//6 174//6 177//6 171//6
f 174//5 180//5 183//5 177//5
f 169//8 175//8 174//8 168//8
f 171//3 177//3 176//3 170//3
f 170//9 176//9 175//9 169//9
f 178//5 184//5 185//5 179//5
f 172//8 178//8 179//8 173//8
f 175//5 181//5 180//5 174//5
f 177//5 183//5 182//5 176//5
f 176//5 182//5 181//5 175//5
f 230//49 241//49 197//49 133//49
f 192//39 200//39 201//39 193//39
f 197//5 201//5 200//5 196//5
f 241//8 242//8 201//8 197//8
f 199//4 203//4 202//4 198//4
f 240//50 242//50 202//50 194//50
f 133//40 197//40 196//40 151//40
f 194//36 202//36 203//36 195//36
f 153//37 199//37 198//37 131//37
f 192//51 205//51 204//51 200//51
f 193//4 207//4 206//4 192//4
f 195//5 209//5 208//5 194//5
f 240//3 243//3 207//3 193//3
f 215//11 221//11 216//11 210//11
f 211//52 217//52 218//52 212//52
f 216//12 219//12 218//12 217//12
f 220//12 223//12 224//12 221//12
f 213//13 219//13 220//13 214//13
f 210//11 216//11 217//11 211//11
f 212//13 218//13 219//13 213//13
f 214//3 220//3 221//3 215//3
f 216//12 225//12 222//12 219//12
f 221//12 224//12 225//12 216//12
f 219//12 222//12 223//12 220//12
f 194//3 208//3 243//3 240//3
f 193//50 201//50 242//50 240//50
f 198//8 202//8 242//8 241//8
f 131//49 198//49 241//49 230//49
f 140//48 148//48 238//48 234//48
f 147//8 149//8 238//8 237//8
f 143//8 145//8 236//8 235//8
f 139//47 147//47 237//47 233//47
f 134//46 144//46 236//46 232//46
f 132//45 143//45 235//45 231//45
f 31//32 162//32 154//32 137//32 23//32
