# Blender v2.76 (sub 0) OBJ File: 'Closet.blend'
# www.blender.org
mtllib Closet.mtl
o Closet1_Cube
v 0.148646 1.175580 0.330233
v -0.143533 1.175580 0.330233
v -0.135011 0.134706 0.291224
v 0.135011 0.134706 0.291224
v 0.137279 0.170438 0.247638
v 0.148646 1.316192 0.309192
v -0.143533 1.316192 0.309192
v -0.161675 0.139682 0.319982
v 0.161675 0.139682 0.319982
v 0.147739 1.146181 0.277563
v 0.137279 0.170438 0.024231
v -0.143533 1.396612 0.256292
v 0.148646 1.396612 0.256292
v -0.161675 0.079340 0.319982
v 0.161675 0.079340 0.319982
v 0.176355 0.170105 0.247442
v 0.186815 1.145847 0.277367
v 0.147739 1.426509 0.024231
v 0.176355 0.170105 0.024035
v 0.147739 1.277994 0.261422
v 0.148646 1.461183 0.140605
v -0.143533 1.461183 0.140605
v -0.135011 0.084316 0.291224
v 0.135011 0.084316 0.291224
v 0.186815 1.277660 0.261226
v 0.186815 1.426176 0.024035
v 0.147739 1.370178 0.224277
v -0.135011 0.084316 0.076405
v 0.135011 0.084316 0.076405
v -0.135011 0.043556 0.298871
v 0.135011 0.043556 0.298871
v 0.186815 1.369844 0.224081
v 0.182354 0.834205 0.074944
v 0.182197 0.834205 0.057880
v 0.181383 0.736470 0.057880
v 0.181540 0.736470 0.074944
v 0.147739 1.413913 0.132093
v 0.186815 1.413579 0.131898
v -0.135011 0.043556 0.077793
v 0.135011 0.043556 0.077793
v -0.135011 -0.007506 0.324885
v 0.135011 -0.007506 0.324885
v -0.135011 -0.007506 0.073278
v 0.135011 -0.007506 0.073278
v 0.191590 0.834205 0.057880
v 0.191590 0.736470 0.057880
v 0.191590 0.834205 0.074944
v 0.191590 0.736470 0.074944
v 0.148646 1.175580 -0.330233
v -0.143533 1.175580 -0.330233
v -0.135011 0.134706 -0.291224
v 0.135011 0.134706 -0.291224
v 0.137279 0.170438 -0.247638
v 0.148646 1.316192 -0.309192
v -0.143533 1.316192 -0.309192
v -0.135011 0.134706 0.000000
v -0.161675 0.139682 -0.319982
v 0.161675 0.139682 -0.319982
v 0.147739 1.146181 -0.277563
v 0.135011 0.134706 0.000000
v 0.137279 0.170438 -0.024231
v -0.143533 1.396612 -0.256292
v 0.148646 1.396612 -0.256292
v -0.143533 1.474621 0.000000
v -0.161675 0.139682 0.000000
v 0.161675 0.139682 0.000000
v -0.161675 0.079340 -0.319982
v 0.161675 0.079340 -0.319982
v 0.176355 0.170105 -0.247442
v 0.186815 1.145847 -0.277367
v 0.147739 1.426509 -0.024231
v 0.176355 0.170105 -0.024035
v 0.147739 1.277994 -0.261422
v 0.148646 1.461183 -0.140605
v -0.143533 1.461183 -0.140605
v -0.161675 0.079340 0.000000
v 0.161675 0.079340 0.000000
v -0.135011 0.084316 -0.291224
v 0.135011 0.084316 -0.291224
v 0.186815 1.277660 -0.261226
v 0.148646 1.474621 0.000000
v 0.186815 1.426176 -0.024035
v 0.147739 1.370178 -0.224277
v -0.135011 0.084316 0.000000
v -0.135011 0.084316 -0.076405
v 0.135011 0.084316 -0.076405
v 0.135011 0.084316 0.000000
v -0.135011 0.043556 -0.298871
v 0.135011 0.043556 -0.298871
v 0.186815 1.369844 -0.224081
v 0.182354 0.834205 -0.074944
v 0.182197 0.834205 -0.057880
v 0.181383 0.736470 -0.057880
v 0.181540 0.736470 -0.074944
v 0.147739 1.413913 -0.132093
v 0.186815 1.413579 -0.131898
v -0.135011 0.043556 -0.077793
v 0.135011 0.043556 -0.077793
v -0.135011 -0.007506 -0.324885
v 0.135011 -0.007506 -0.324885
v -0.135011 -0.007506 -0.073278
v 0.135011 -0.007506 -0.073278
v 0.191590 0.834205 -0.057880
v 0.191590 0.736470 -0.057880
v 0.191590 0.834205 -0.074944
v 0.191590 0.736470 -0.074944
vn 0.004700 -0.030700 0.999500
vn -0.008500 -1.000000 0.000000
vn 0.006000 0.121500 0.992600
vn 1.000000 -0.008600 -0.004500
vn -0.005000 0.000000 -1.000000
vn 0.007800 0.373700 0.927500
vn 0.999900 -0.008300 -0.009200
vn 0.009000 0.993200 0.116000
vn 0.009900 0.903400 0.428600
vn 0.004700 -0.030700 -0.999500
vn 0.006000 0.121500 -0.992600
vn 1.000000 -0.008600 0.004500
vn -0.005000 0.000000 1.000000
vn 0.007800 0.373700 -0.927500
vn 0.999900 -0.008300 0.009200
vn 0.009000 0.993200 -0.116000
vn 0.009900 0.903400 -0.428600
vn 0.000000 -0.037500 0.999300
vn 0.999800 -0.012400 0.013300
vn 0.000000 0.148000 0.989000
vn 0.000000 0.985400 -0.170500
vn 0.998000 -0.063300 0.000000
vn -1.000000 -0.006500 -0.003100
vn 0.999900 -0.002300 -0.016500
vn 0.000000 0.549600 0.835500
vn 0.183400 0.983000 0.000000
vn -0.183400 0.983000 0.000000
vn 0.000000 0.000000 1.000000
vn 0.999500 -0.009300 -0.030400
vn 0.999800 -0.008300 -0.016000
vn 0.000000 0.873200 0.487400
vn -1.000000 0.000000 0.000000
vn 1.000000 0.000000 0.000000
vn 0.000000 -0.985400 -0.170500
vn 0.999800 -0.019100 -0.010000
vn 0.000000 0.995500 0.095100
vn 0.183400 -0.983000 0.000000
vn -0.183400 -0.983000 0.000000
vn 0.000000 0.184400 0.982900
vn 0.999800 -0.019400 -0.002000
vn 0.000000 -1.000000 0.000000
vn 0.000000 0.454000 0.891000
vn -0.000000 -0.034000 -0.999400
vn -0.000000 0.088100 -0.996100
vn 0.000000 0.000000 -1.000000
vn 0.000000 1.000000 0.000000
vn 0.000000 -0.037500 -0.999300
vn 0.999800 -0.012400 -0.013300
vn 0.000000 0.148000 -0.989000
vn 0.000000 0.985400 0.170500
vn -1.000000 -0.006500 0.003100
vn 0.999900 -0.002300 0.016500
vn 0.000000 0.549600 -0.835500
vn 0.999500 -0.009300 0.030400
vn 0.999800 -0.008300 0.016000
vn 0.000000 0.873200 -0.487400
vn 0.000000 -0.985400 0.170500
vn 0.999800 -0.019100 0.010000
vn 0.000000 0.995500 -0.095100
vn 0.000000 0.184400 -0.982900
vn 0.999800 -0.019400 0.002000
vn 0.000000 0.454000 -0.891000
vn -0.000000 -0.034000 0.999400
vn -0.000000 0.088100 0.996100
usemtl Wood.002
s off
f 10//1 5//1 16//1 17//1
f 5//2 11//2 19//2 16//2
f 20//3 10//3 17//3 25//3
f 33//4 26//4 38//4 32//4 25//4 17//4 16//4 19//4 36//4
f 11//5 18//5 26//5 19//5
f 27//6 20//6 25//6 32//6
f 33//7 34//7 35//7 36//7 19//7 26//7
f 18//8 37//8 38//8 26//8
f 37//9 27//9 32//9 38//9
f 59//10 70//10 69//10 53//10
f 53//2 69//2 72//2 61//2
f 73//11 80//11 70//11 59//11
f 91//12 94//12 72//12 69//12 70//12 80//12 90//12 96//12 82//12
f 61//13 72//13 82//13 71//13
f 83//14 90//14 80//14 73//14
f 91//15 82//15 72//15 94//15 93//15 92//15
f 71//16 82//16 96//16 95//16
f 95//17 96//17 90//17 83//17
usemtl DarkWood
f 1//18 2//18 3//18 4//18
f 4//19 5//19 10//19 1//19
f 2//20 1//20 6//20 7//20
f 4//21 3//21 8//21 9//21
f 4//22 60//22 11//22 5//22
f 7//23 12//23 22//23 64//23 56//23 3//23 2//23
f 1//24 10//24 20//24 6//24
f 7//25 6//25 13//25 12//25
f 3//26 56//26 65//26 8//26
f 60//27 4//27 9//27 66//27
f 9//28 8//28 14//28 15//28
f 11//29 60//29 81//29 18//29
f 6//30 20//30 27//30 13//30
f 12//31 13//31 21//31 22//31
f 8//32 65//32 76//32 14//32
f 66//33 9//33 15//33 77//33
f 23//34 24//34 15//34 14//34
f 13//35 27//35 37//35 21//35
f 21//36 81//36 64//36 22//36
f 84//37 28//37 23//37 14//37 76//37
f 24//38 29//38 87//38 77//38 15//38
f 24//39 23//39 30//39 31//39
f 21//40 37//40 18//40 81//40
f 28//41 84//41 87//41 29//41
f 23//32 28//32 39//32 30//32
f 29//33 24//33 31//33 40//33
f 31//42 30//42 41//42 42//42
f 28//43 29//43 40//43 39//43
f 30//32 39//32 43//32 41//32
f 40//33 31//33 42//33 44//33
f 41//41 43//41 44//41 42//41
f 39//44 40//44 44//44 43//44
f 34//45 45//45 46//45 35//45
f 33//46 47//46 45//46 34//46
f 45//33 47//33 48//33 46//33
f 35//41 46//41 48//41 36//41
f 36//28 48//28 47//28 33//28
f 49//47 52//47 51//47 50//47
f 52//48 49//48 59//48 53//48
f 50//49 55//49 54//49 49//49
f 52//50 58//50 57//50 51//50
f 52//22 53//22 61//22 60//22
f 55//51 50//51 51//51 56//51 64//51 75//51 62//51
f 49//52 54//52 73//52 59//52
f 55//53 62//53 63//53 54//53
f 51//26 57//26 65//26 56//26
f 60//27 66//27 58//27 52//27
f 58//45 68//45 67//45 57//45
f 61//54 71//54 81//54 60//54
f 54//55 63//55 83//55 73//55
f 62//56 75//56 74//56 63//56
f 57//32 67//32 76//32 65//32
f 66//33 77//33 68//33 58//33
f 78//57 67//57 68//57 79//57
f 63//58 74//58 95//58 83//58
f 74//59 75//59 64//59 81//59
f 84//37 76//37 67//37 78//37 85//37
f 79//38 68//38 77//38 87//38 86//38
f 79//60 89//60 88//60 78//60
f 74//61 81//61 71//61 95//61
f 85//41 86//41 87//41 84//41
f 78//32 88//32 97//32 85//32
f 86//33 98//33 89//33 79//33
f 89//62 100//62 99//62 88//62
f 85//63 97//63 98//63 86//63
f 88//32 99//32 101//32 97//32
f 98//33 102//33 100//33 89//33
f 99//41 100//41 102//41 101//41
f 97//64 101//64 102//64 98//64
f 92//28 93//28 104//28 103//28
f 91//46 92//46 103//46 105//46
f 103//33 104//33 106//33 105//33
f 93//41 94//41 106//41 104//41
f 94//45 91//45 105//45 106//45
