# Blender v2.76 (sub 0) OBJ File: 'Coffee Table 2.blend'
# www.blender.org
mtllib CoffeeTable2.mtl
o Coffee_Table_2_Cube.013
v 0.858209 0.093885 -1.250873
v 0.855453 0.250766 -1.248117
v 0.858209 0.093885 -1.312227
v 0.855453 0.250766 -1.314983
v 0.919564 0.093885 -1.250873
v 0.922320 0.250766 -1.248117
v 0.919564 0.093885 -1.312227
v 0.922320 0.250766 -1.314983
v 0.855453 0.317509 -1.248117
v 0.922320 0.317509 -1.314983
v 0.826122 0.374056 -1.216983
v 0.826122 0.317509 -1.216983
v 0.858209 0.038611 -1.312227
v 0.858209 0.038611 -1.250873
v 0.919564 0.038611 -1.312227
v 0.919564 0.038611 -1.250873
v 1.382890 0.093885 -1.250873
v 1.385646 0.250766 -1.248117
v 1.382890 0.093885 -1.312227
v 1.385646 0.250766 -1.314983
v 1.321536 0.093885 -1.250873
v 1.318780 0.250766 -1.248117
v 1.321536 0.093885 -1.312227
v 1.318780 0.250766 -1.314983
v 1.385646 0.317509 -1.248117
v 1.318780 0.317509 -1.314983
v 1.414977 0.374056 -1.216983
v 1.414977 0.317509 -1.216983
v 1.120550 0.250766 -1.314983
v 1.120550 0.250766 -1.248117
v 1.120550 0.317509 -1.314983
v 1.120550 0.317509 -1.248117
v 1.120550 0.374056 -1.216983
v 1.120550 0.317509 -1.216983
v 1.382890 0.038611 -1.312227
v 1.382890 0.038611 -1.250873
v 1.321536 0.038611 -1.312227
v 1.321536 0.038611 -1.250873
v 0.858209 0.093885 -2.199325
v 0.855453 0.250766 -2.202081
v 0.858209 0.093885 -2.137971
v 0.855453 0.250766 -2.135215
v 0.919564 0.093885 -2.199325
v 0.922320 0.250766 -2.202081
v 0.919564 0.093885 -2.137971
v 0.922320 0.250766 -2.135215
v 0.855453 0.317509 -2.202081
v 0.922320 0.317509 -2.135215
v 0.826122 0.374056 -2.233215
v 0.826122 0.317509 -2.233215
v 0.855453 0.250766 -1.725099
v 0.922320 0.250766 -1.725099
v 0.855453 0.317509 -1.725099
v 0.922320 0.317509 -1.725099
v 0.826122 0.374056 -1.725099
v 0.826122 0.317509 -1.725099
v 0.858209 0.038611 -2.137971
v 0.858209 0.038611 -2.199325
v 0.919564 0.038611 -2.137971
v 0.919564 0.038611 -2.199325
v 1.382890 0.093885 -2.199325
v 1.385646 0.250766 -2.202081
v 1.382890 0.093885 -2.137971
v 1.385646 0.250766 -2.135215
v 1.321536 0.093885 -2.199325
v 1.318780 0.250766 -2.202081
v 1.321536 0.093885 -2.137971
v 1.318780 0.250766 -2.135215
v 1.385646 0.317509 -2.202081
v 1.318780 0.317509 -2.135215
v 1.414977 0.374056 -2.233215
v 1.414977 0.317509 -2.233215
v 1.120550 0.250766 -2.135215
v 1.120550 0.250766 -2.202081
v 1.120550 0.317509 -2.135215
v 1.120550 0.317509 -2.202081
v 1.120550 0.374056 -2.233215
v 1.120550 0.317509 -2.233215
v 1.385646 0.250766 -1.725099
v 1.318780 0.250766 -1.725099
v 1.385646 0.317509 -1.725099
v 1.318780 0.317509 -1.725099
v 1.414977 0.374056 -1.725099
v 1.414977 0.317509 -1.725099
v 1.120550 0.317509 -1.725099
v 1.120550 0.374056 -1.725099
v 1.382890 0.038611 -2.137971
v 1.382890 0.038611 -2.199325
v 1.321536 0.038611 -2.137971
v 1.321536 0.038611 -2.199325
vn -0.999800 -0.017600 0.000000
vn 0.000000 -0.017600 -0.999800
vn 0.999800 -0.017600 0.000000
vn 0.000000 -0.017600 0.999800
vn 0.000000 -1.000000 0.000000
vn 1.000000 0.000000 0.000000
vn 0.000000 0.000000 -1.000000
vn 0.000000 0.000000 1.000000
vn -1.000000 0.000000 0.000000
vn 0.000000 1.000000 0.000000
usemtl DarkWood.006
s off
f 2//1 4//1 3//1 1//1
f 4//2 8//2 7//2 3//2
f 8//3 6//3 5//3 7//3
f 6//4 2//4 1//4 5//4
f 6//5 8//5 29//5 30//5
f 8//5 4//5 51//5 52//5
f 10//6 8//6 52//6 54//6
f 8//7 10//7 31//7 29//7
f 9//8 6//8 30//8 32//8
f 2//8 6//8 9//8
f 4//9 9//9 53//9 51//9
f 4//9 2//9 9//9
f 14//5 13//5 15//5 16//5
f 1//9 3//9 13//9 14//9
f 5//8 1//8 14//8 16//8
f 37//7 15//7 7//7 23//7
f 21//8 5//8 16//8 38//8
f 41//10 3//10 7//10 45//10
f 13//9 3//9 41//9 57//9
f 59//5 15//5 13//5 57//5
f 45//6 7//6 15//6 59//6
f 18//3 17//3 19//3 20//3
f 20//2 19//2 23//2 24//2
f 24//1 23//1 21//1 22//1
f 22//4 21//4 17//4 18//4
f 38//5 16//5 15//5 37//5
f 22//5 30//5 29//5 24//5
f 24//5 80//5 79//5 20//5
f 26//9 82//9 80//9 24//9
f 24//7 29//7 31//7 26//7
f 25//8 32//8 30//8 22//8
f 18//8 25//8 22//8
f 20//6 79//6 81//6 25//6
f 20//6 25//6 18//6
f 36//5 38//5 37//5 35//5
f 17//6 36//6 35//6 19//6
f 21//8 38//8 36//8 17//8
f 35//6 87//6 63//6 19//6
f 89//5 87//5 35//5 37//5
f 67//9 89//9 37//9 23//9
f 40//1 39//1 41//1 42//1
f 42//4 41//4 45//4 46//4
f 46//3 45//3 43//3 44//3
f 44//2 43//2 39//2 40//2
f 44//5 74//5 73//5 46//5
f 46//5 52//5 51//5 42//5
f 48//6 54//6 52//6 46//6
f 46//8 73//8 75//8 48//8
f 47//7 76//7 74//7 44//7
f 40//7 47//7 44//7
f 42//9 51//9 53//9 47//9
f 42//9 47//9 40//9
f 58//5 60//5 59//5 57//5
f 39//9 58//9 57//9 41//9
f 63//10 67//10 23//10 19//10
f 43//7 60//7 58//7 39//7
f 89//8 67//8 45//8 59//8
f 65//7 90//7 60//7 43//7
f 62//3 64//3 63//3 61//3
f 64//4 68//4 67//4 63//4
f 68//1 66//1 65//1 67//1
f 66//2 62//2 61//2 65//2
f 90//5 89//5 59//5 60//5
f 66//5 68//5 73//5 74//5
f 68//5 64//5 79//5 80//5
f 70//9 68//9 80//9 82//9
f 68//8 70//8 75//8 73//8
f 69//7 66//7 74//7 76//7
f 62//7 66//7 69//7
f 64//6 69//6 81//6 79//6
f 64//6 62//6 69//6
f 88//5 87//5 89//5 90//5
f 61//6 63//6 87//6 88//6
f 45//10 67//10 65//10 43//10
f 65//7 61//7 88//7 90//7
f 7//10 5//10 21//10 23//10
usemtl Wood.008
f 11//10 33//10 86//10
f 53//5 9//5 12//5 56//5
f 9//5 32//5 34//5 12//5
f 31//5 10//5 85//5
f 10//5 54//5 85//5
f 55//10 11//10 86//10
f 56//9 12//9 11//9 55//9
f 12//8 34//8 33//8 11//8
f 27//10 86//10 33//10
f 81//5 84//5 28//5 25//5
f 25//5 28//5 34//5 32//5
f 31//5 85//5 26//5
f 26//5 85//5 82//5
f 83//10 86//10 27//10
f 84//6 83//6 27//6 28//6
f 28//8 27//8 33//8 34//8
f 49//10 86//10 77//10
f 53//5 56//5 50//5 47//5
f 47//5 50//5 78//5 76//5
f 75//5 85//5 48//5
f 48//5 85//5 54//5
f 55//10 86//10 49//10
f 56//9 55//9 49//9 50//9
f 50//7 49//7 77//7 78//7
f 71//10 77//10 86//10
f 81//5 69//5 72//5 84//5
f 69//5 76//5 78//5 72//5
f 75//5 70//5 85//5
f 70//5 82//5 85//5
f 83//10 71//10 86//10
f 84//6 72//6 71//6 83//6
f 72//7 78//7 77//7 71//7
l 85 86
