# Blender v2.76 (sub 0) OBJ File: 'Lamp.blend'
# www.blender.org
mtllib Lamp2.mtl
o Lamp_Cylinder.003
v 0.000102 1.038928 -0.076372
v 0.053396 1.038928 -0.054297
v 0.075471 1.038928 -0.001004
v 0.053396 1.038928 0.052290
v 0.000102 1.038928 0.074365
v -0.053191 1.038928 0.052290
v -0.075266 1.038928 -0.001004
v -0.053191 1.038928 -0.054297
v 0.038770 1.038928 -0.039671
v 0.000102 1.038928 -0.055688
v 0.054787 1.038928 -0.001004
v 0.038770 1.038928 0.037664
v 0.000102 1.038928 0.053681
v -0.038565 1.038928 0.037664
v -0.054582 1.038928 -0.001004
v -0.038565 1.038928 -0.039671
v 0.000102 0.786299 -0.116665
v 0.081887 0.786299 -0.082789
v 0.115764 0.786299 -0.001004
v 0.081887 0.786299 0.080781
v 0.000102 0.786299 0.114658
v -0.081683 0.786299 0.080781
v -0.115559 0.786299 -0.001004
v -0.081683 0.786299 -0.082789
v 0.070162 0.786299 -0.071064
v 0.000102 0.786299 -0.100083
v 0.099182 0.786299 -0.001004
v 0.070162 0.786299 0.069056
v 0.000102 0.786299 0.098076
v -0.069958 0.786299 0.069056
v -0.098977 0.786299 -0.001004
v -0.069958 0.786299 -0.071064
v -0.000136 0.000454 -0.121100
v -0.000136 0.041529 -0.121100
v 0.105897 0.000454 -0.059881
v 0.105897 0.041529 -0.059881
v 0.105897 0.000454 0.062555
v 0.105897 0.041529 0.062555
v -0.000136 0.000454 0.123773
v -0.000136 0.041529 0.123773
v -0.106170 0.000454 0.062555
v -0.106170 0.041529 0.062555
v -0.106170 0.000454 -0.059881
v -0.106170 0.041529 -0.059881
v 0.010696 0.041529 -0.004917
v -0.000136 0.041529 -0.011172
v 0.010696 0.041529 0.007591
v -0.000136 0.041529 0.013845
v -0.010969 0.041529 0.007591
v -0.010969 0.041529 -0.004917
v 0.010696 0.954976 -0.004917
v -0.000136 0.954976 -0.011172
v 0.010696 0.954976 0.007591
v -0.000136 0.954976 0.013845
v -0.010969 0.954976 0.007591
v -0.010969 0.954976 -0.004917
vn 0.500000 0.000000 -0.866000
vn 1.000000 0.000000 0.000000
vn 0.500000 0.000000 0.866000
vn -0.500000 0.000000 0.866000
vn 0.000000 1.000000 -0.000000
vn -0.500000 0.000000 -0.866000
vn -1.000000 0.000000 0.000000
vn 0.000000 -1.000000 -0.000000
vn -0.377700 -0.160300 0.911900
vn 0.378600 0.145800 -0.914000
vn 0.914000 0.145800 -0.378600
vn 0.914000 0.145800 0.378600
vn 0.378600 0.145800 0.914000
vn -0.378600 0.145800 0.914000
vn -0.914000 0.145800 0.378600
vn -0.378600 0.145800 -0.914000
vn 0.911900 -0.160300 0.377700
vn 0.377700 -0.160300 -0.911900
vn -0.911900 -0.160300 -0.377700
vn 0.377700 -0.160300 0.911900
vn 0.911900 -0.160300 -0.377700
vn -0.377700 -0.160300 -0.911900
vn -0.911900 -0.160300 0.377700
vn -0.914000 0.145800 -0.378600
usemtl Metal.001
s off
f 33//1 34//1 36//1 35//1
f 35//2 36//2 38//2 37//2
f 37//3 38//3 40//3 39//3
f 39//4 40//4 42//4 41//4
f 38//5 36//5 45//5 47//5
f 43//6 44//6 34//6 33//6
f 41//7 42//7 44//7 43//7
f 33//8 35//8 37//8 39//8 41//8 43//8
f 46//6 50//6 56//6 52//6
f 44//5 42//5 49//5 50//5
f 36//5 34//5 46//5 45//5
f 40//5 38//5 47//5 48//5
f 34//5 44//5 50//5 46//5
f 42//5 40//5 48//5 49//5
f 51//5 52//5 56//5 55//5 54//5 53//5
f 49//4 48//4 54//4 55//4
f 47//2 45//2 51//2 53//2
f 50//7 49//7 55//7 56//7
f 48//3 47//3 53//3 54//3
f 45//1 46//1 52//1 51//1
usemtl Top.001
f 25//9 9//9 10//9 26//9
f 2//10 18//10 17//10 1//10
f 3//11 19//11 18//11 2//11
f 4//12 20//12 19//12 3//12
f 5//13 21//13 20//13 4//13
f 6//14 22//14 21//14 5//14
f 8//5 7//5 15//5 16//5
f 7//15 23//15 22//15 6//15
f 1//16 17//16 24//16 8//16
f 6//5 5//5 13//5 14//5
f 4//5 3//5 11//5 12//5
f 1//5 8//5 16//5 10//5
f 7//5 6//5 14//5 15//5
f 5//5 4//5 12//5 13//5
f 3//5 2//5 9//5 11//5
f 2//5 1//5 10//5 9//5
f 32//17 16//17 15//17 31//17
f 30//18 14//18 13//18 29//18
f 28//19 12//19 11//19 27//19
f 26//20 10//20 16//20 32//20
f 31//21 15//21 14//21 30//21
f 29//22 13//22 12//22 28//22
f 27//23 11//23 9//23 25//23
f 24//8 32//8 31//8 23//8
f 22//8 30//8 29//8 21//8
f 20//8 28//8 27//8 19//8
f 17//8 26//8 32//8 24//8
f 23//8 31//8 30//8 22//8
f 21//8 29//8 28//8 20//8
f 19//8 27//8 25//8 18//8
f 18//8 25//8 26//8 17//8
f 8//24 24//24 23//24 7//24
