# Blender v2.76 (sub 0) OBJ File: 'Sofa.blend'
# www.blender.org
mtllib Sofa.mtl
o Sofa_Cube.021
v -0.069533 0.603956 0.214600
v -0.071246 0.576979 0.214600
v 0.016359 0.593125 0.214600
v 0.005141 0.617719 0.214600
v -0.071246 0.576979 -0.214600
v -0.069533 0.603956 -0.214600
v 0.016359 0.593126 -0.214600
v 0.005141 0.617719 -0.214600
v -0.009893 0.280371 0.251762
v -0.016359 0.279179 0.214600
v -0.005141 0.254586 0.214600
v 0.071246 0.295326 0.214600
v 0.064781 0.294134 0.251762
v 0.069533 0.268349 0.214600
v -0.005141 0.254586 -0.214600
v -0.016359 0.279179 -0.214600
v -0.009893 0.280371 -0.251762
v 0.071246 0.295326 -0.214600
v 0.069533 0.268349 -0.214600
v 0.064781 0.294134 -0.251762
v 0.046615 0.428966 -0.214600
v 0.044130 0.406175 -0.251762
v -0.037009 0.391220 -0.214600
v -0.030543 0.392412 -0.251762
v 0.046615 0.428966 0.214600
v 0.044130 0.406175 0.251762
v -0.037009 0.391220 0.214600
v -0.030543 0.392412 0.251762
v -0.071246 0.576979 0.312356
v -0.064781 0.578171 0.366447
v -0.069533 0.603956 0.312356
v 0.005141 0.617719 0.312356
v 0.009893 0.591934 0.366447
v 0.016359 0.593125 0.312356
v -0.069533 0.603956 -0.312356
v -0.064781 0.578171 -0.366447
v -0.071246 0.576979 -0.312356
v 0.005141 0.617719 -0.312356
v 0.016359 0.593126 -0.312356
v 0.009893 0.591934 -0.366447
v 0.044130 0.406175 -0.366447
v -0.037009 0.391220 -0.312356
v 0.046615 0.428966 0.312356
v -0.030543 0.392412 0.366447
v 0.046615 0.428966 -0.312356
v -0.030543 0.392412 -0.366447
v 0.044130 0.406175 0.366447
v -0.037009 0.391220 0.312356
v 0.018161 0.171323 0.261080
v -0.020405 0.171323 0.222543
v 0.018161 0.163350 0.222543
v 0.018161 0.263407 0.261080
v 0.018161 0.271380 0.222543
v -0.020405 0.263407 0.222543
v 0.018161 0.171323 -0.261080
v 0.018161 0.163350 -0.222543
v -0.020405 0.171323 -0.222543
v 0.018161 0.271380 -0.222543
v 0.018161 0.263407 -0.261080
v -0.020405 0.263407 -0.222543
v 0.463579 0.171323 0.261080
v 0.463579 0.163350 0.222543
v 0.502145 0.171323 0.222543
v 0.463579 0.271380 0.222543
v 0.463579 0.263407 0.261080
v 0.502145 0.263407 0.222543
v 0.502145 0.171323 -0.222543
v 0.463579 0.163350 -0.222543
v 0.463579 0.171323 -0.261080
v 0.463579 0.271380 -0.222543
v 0.502145 0.263407 -0.222543
v 0.463579 0.263407 -0.261080
v -0.155878 -0.009866 0.416780
v -0.155923 0.167079 0.407510
v -0.155878 -0.009866 -0.418600
v -0.155923 0.167079 -0.409330
v 0.541817 -0.009866 0.416780
v 0.499736 0.167079 0.407510
v 0.541817 -0.009866 -0.418600
v 0.499736 0.167079 -0.409330
v -0.155923 0.167079 0.265137
v -0.155923 0.167079 -0.268841
v 0.499736 0.167079 -0.279320
v 0.499736 0.167079 0.277500
v -0.025040 0.167079 -0.409330
v -0.014838 -0.009866 -0.418600
v -0.025040 0.167079 0.407510
v -0.014838 -0.009866 0.416780
v -0.025040 0.167079 -0.268841
v -0.025040 0.167079 0.265137
v -0.025040 0.358987 -0.409330
v -0.025040 0.358987 0.407510
v -0.155923 0.358987 0.407510
v -0.025040 0.359613 -0.268841
v -0.025040 0.359613 0.265137
v -0.155923 0.359613 0.265137
v -0.155923 0.358987 -0.409330
v -0.155923 0.359613 -0.268841
v 0.449093 0.358987 -0.409330
v 0.499736 0.308344 -0.409330
v 0.499736 0.308344 -0.279320
v 0.449093 0.358987 -0.279320
v 0.449093 0.358987 0.277500
v 0.499736 0.308344 0.277500
v 0.499736 0.308344 0.407510
v 0.449093 0.358987 0.407510
v -0.155923 0.395864 0.265137
v -0.155923 0.395864 -0.268841
v -0.025040 0.395864 -0.268841
v -0.025040 0.395864 0.265137
v -0.195076 0.555369 0.265137
v -0.195076 0.555369 -0.268841
v -0.025040 0.395864 0.370552
v -0.155923 0.395864 0.370552
v -0.025040 0.395864 -0.374256
v -0.155923 0.395864 -0.374256
v -0.195076 0.555369 0.370552
v -0.195076 0.555369 -0.374256
v -0.112499 0.568624 0.265137
v -0.058359 0.529461 0.265137
v -0.058359 0.529461 -0.268841
v -0.112499 0.568624 -0.268841
v -0.058359 0.529461 0.370552
v -0.112499 0.568624 0.370552
v -0.112499 0.568624 -0.374256
v -0.058359 0.529461 -0.374256
vn -0.983400 -0.181300 0.000000
vn 0.181300 -0.983400 -0.000000
vn 0.983400 0.181300 -0.000000
vn -0.998000 0.063400 0.000000
vn -0.000000 0.000000 -1.000000
vn 0.909800 0.415000 -0.000000
vn -0.896700 -0.409000 0.169100
vn 0.983600 -0.062500 0.169100
vn -0.896700 -0.409000 -0.169100
vn 0.983600 -0.062500 -0.169100
vn 0.994100 -0.108400 -0.000000
vn 0.968400 0.178500 -0.174200
vn 0.148100 -0.803600 -0.576500
vn -0.181300 0.983400 -0.000000
vn 0.998000 -0.063400 -0.000000
vn 0.148100 -0.803600 0.576500
vn -0.909800 -0.415000 0.000000
vn -0.968400 -0.178500 0.174200
vn 0.968400 0.178500 0.174200
vn -0.968400 -0.178500 -0.174200
vn -0.000000 0.000000 1.000000
vn -0.991100 0.062900 0.117100
vn 0.903600 0.412200 0.117100
vn -0.991100 0.062900 -0.117100
vn 0.903600 0.412200 -0.117100
vn -0.163100 0.885000 0.436200
vn -0.163100 0.885000 -0.436200
vn -0.976300 -0.179900 -0.120700
vn 0.976300 0.179900 0.120700
vn -0.976300 -0.179900 0.120700
vn 0.976300 0.179900 -0.120700
vn 0.000000 -1.000000 0.000000
vn 1.000000 0.000000 0.000000
vn -0.000000 1.000000 -0.000000
vn -0.198400 -0.959800 0.198600
vn -0.198400 0.959800 0.198600
vn -0.198400 -0.959800 -0.198600
vn -0.198400 0.959800 -0.198600
vn 0.198400 -0.959800 0.198600
vn 0.198400 0.959800 0.198600
vn 0.198400 -0.959800 -0.198600
vn 0.198400 0.959800 -0.198600
vn -0.706800 -0.000000 0.707400
vn -0.202500 0.979300 0.000000
vn -0.706800 0.000000 -0.707400
vn -0.202500 -0.979300 0.000000
vn -0.000000 0.979300 -0.202600
vn 0.706800 0.000000 -0.707400
vn 0.000000 -0.979300 -0.202600
vn 0.202500 0.979300 0.000000
vn 0.706800 -0.000000 0.707400
vn 0.202500 -0.979300 0.000000
vn -0.000000 0.979300 0.202600
vn 0.000000 -0.979300 0.202600
vn -1.000000 -0.000000 0.000000
vn -0.000000 0.052300 -0.998600
vn 0.000000 0.052300 0.998600
vn 0.972900 0.231400 0.000000
vn 0.000600 1.000000 0.002300
vn -0.000000 1.000000 -0.004500
vn -0.000000 1.000000 0.004400
vn 0.020200 0.002700 0.999800
vn 0.023900 0.003100 -0.999700
vn 0.707100 0.707100 0.000000
vn 0.000600 1.000000 -0.002300
vn 0.970300 0.242000 0.000000
vn -0.971200 -0.238400 -0.000000
vn -0.158500 0.987400 -0.000000
vn 0.586100 0.810200 0.000000
vn -1.000000 -0.000300 0.000000
usemtl Sofa.002
s off
f 27//1 23//1 16//1 10//1
f 19//2 14//2 11//2 15//2
f 25//3 21//3 7//3 3//3
f 1//4 2//4 29//4 31//4
f 22//5 20//5 17//5 24//5
f 28//2 26//2 47//2 44//2
f 8//6 7//6 39//6 38//6
f 22//2 24//2 46//2 41//2
f 5//4 6//4 35//4 37//4
f 9//7 10//7 11//7
f 12//8 13//8 14//8
f 15//9 16//9 17//9
f 18//10 19//10 20//10
f 21//11 22//11 41//11 45//11
f 3//6 7//6 8//6 4//6
f 25//3 3//3 34//3 43//3
f 5//4 2//4 1//4 6//4
f 21//12 18//12 20//12 22//12
f 19//13 15//13 17//13 20//13
f 6//14 8//14 38//14 35//14
f 18//15 12//15 14//15 19//15
f 13//16 9//16 11//16 14//16
f 10//17 16//17 15//17 11//17
f 23//1 5//1 37//1 42//1
f 27//18 10//18 9//18 28//18
f 4//14 8//14 6//14 1//14
f 24//2 23//2 42//2 46//2
f 12//19 25//19 26//19 13//19
f 16//20 23//20 24//20 17//20
f 26//11 25//11 43//11 47//11
f 3//6 4//6 32//6 34//6
f 13//21 26//21 28//21 9//21
f 12//3 18//3 21//3 25//3
f 2//1 5//1 23//1 27//1
f 47//21 33//21 30//21 44//21
f 30//22 31//22 29//22
f 33//23 34//23 32//23
f 36//24 37//24 35//24
f 39//25 40//25 38//25
f 30//26 33//26 32//26 31//26
f 40//27 36//27 35//27 38//27
f 42//28 37//28 36//28 46//28
f 43//29 34//29 33//29 47//29
f 29//30 48//30 44//30 30//30
f 39//31 45//31 41//31 40//31
f 40//5 41//5 46//5 36//5
f 2//1 27//1 48//1 29//1
f 4//14 1//14 31//14 32//14
f 7//3 21//3 45//3 39//3
f 27//2 28//2 44//2 48//2
f 51//32 56//32 68//32 62//32
f 71//33 66//33 63//33 67//33
f 64//34 70//34 58//34 53//34
f 65//21 52//21 49//21 61//21
f 59//5 72//5 69//5 55//5
f 49//35 50//35 51//35
f 52//36 53//36 54//36
f 55//37 56//37 57//37
f 58//38 59//38 60//38
f 61//39 62//39 63//39
f 64//40 65//40 66//40
f 67//41 68//41 69//41
f 70//42 71//42 72//42
f 49//43 52//43 54//43 50//43
f 53//44 58//44 60//44 54//44
f 59//45 55//45 57//45 60//45
f 56//46 51//46 50//46 57//46
f 58//47 70//47 72//47 59//47
f 71//48 67//48 69//48 72//48
f 68//49 56//49 55//49 69//49
f 70//50 64//50 66//50 71//50
f 65//51 61//51 63//51 66//51
f 62//52 68//52 67//52 63//52
f 64//53 53//53 52//53 65//53
f 51//54 62//54 61//54 49//54
f 54//55 60//55 57//55 50//55
f 85//56 80//56 79//56 86//56
f 87//57 74//57 73//57 88//57
f 88//32 86//32 79//32 77//32
f 85//5 76//5 97//5 91//5
f 78//33 84//33 104//33 105//33
f 80//58 83//58 84//58 78//58 77//58 79//58
f 92//59 106//59 103//59 95//59
f 73//32 75//32 86//32 88//32
f 78//57 87//57 88//57 77//57
f 76//56 85//56 86//56 75//56
f 91//60 97//60 98//60 94//60
f 83//33 80//33 100//33 101//33
f 87//21 78//21 105//21 106//21 92//21
f 93//61 92//61 95//61 96//61
f 89//62 83//62 101//62 102//62 94//62
f 81//55 74//55 93//55 96//55
f 76//55 82//55 98//55 97//55
f 84//63 90//63 95//63 103//63 104//63
f 90//33 89//33 94//33 95//33
f 74//21 87//21 92//21 93//21
f 80//5 85//5 91//5 99//5 100//5
f 101//64 100//64 99//64 102//64
f 103//64 106//64 105//64 104//64
f 99//65 91//65 94//65 102//65
f 110//66 120//66 123//66 113//66
f 96//21 95//21 110//21 107//21
f 94//5 98//5 108//5 109//5
f 110//66 109//66 121//66 120//66
f 121//66 109//66 115//66 126//66
f 108//67 107//67 111//67 112//67
f 111//67 107//67 114//67 117//67
f 115//5 116//5 118//5 125//5 126//5
f 109//32 108//32 116//32 115//32
f 108//67 112//67 118//67 116//67
f 112//68 122//68 125//68 118//68
f 114//21 113//21 123//21 124//21 117//21
f 107//32 110//32 113//32 114//32
f 119//68 122//68 112//68 111//68
f 122//69 119//69 120//69 121//69
f 119//69 124//69 123//69 120//69
f 125//69 122//69 121//69 126//69
f 119//68 111//68 117//68 124//68
f 95//33 94//33 109//33 110//33
f 84//34 83//34 89//34 90//34
f 74//70 81//70 82//70 76//70 75//70 73//70
f 98//55 96//55 107//55 108//55
f 82//55 81//55 96//55 98//55
