# Blender v2.76 (sub 0) OBJ File: 'SofaDouble.blend'
# www.blender.org
mtllib SofaDouble.mtl
o SofaDouble_Cube.002
v -0.253197 0.606924 0.469743
v -0.254911 0.579948 0.469743
v -0.167306 0.596094 0.469743
v -0.178524 0.620687 0.469743
v -0.254911 0.579948 0.040544
v -0.253198 0.606924 0.040544
v -0.167306 0.596094 0.040544
v -0.178524 0.620687 0.040544
v -0.193558 0.283339 0.506905
v -0.200023 0.282148 0.469743
v -0.188805 0.257555 0.469743
v -0.112418 0.298294 0.469743
v -0.118884 0.297102 0.506905
v -0.114132 0.271318 0.469743
v -0.188805 0.257555 0.040543
v -0.200023 0.282148 0.040543
v -0.193558 0.283339 0.003381
v -0.112418 0.298294 0.040543
v -0.114132 0.271318 0.040543
v -0.118884 0.297103 0.003381
v -0.137050 0.431934 0.040544
v -0.139534 0.409144 0.003382
v -0.220674 0.394189 0.040544
v -0.214208 0.395381 0.003382
v -0.137049 0.431934 0.469743
v -0.139534 0.409144 0.506905
v -0.220674 0.394189 0.469743
v -0.214208 0.395381 0.506905
v -0.254911 0.579948 0.567500
v -0.248445 0.581139 0.621590
v -0.253197 0.606924 0.567500
v -0.178524 0.620687 0.567500
v -0.173771 0.594902 0.621590
v -0.167306 0.596094 0.567500
v -0.248445 0.581139 0.002406
v -0.173771 0.594902 0.002406
v -0.137049 0.431934 0.567500
v -0.214208 0.395381 0.621590
v -0.139534 0.409144 0.621590
v -0.220674 0.394189 0.567500
v -0.165503 0.174292 0.526512
v -0.204070 0.174292 0.487975
v -0.165503 0.166319 0.487975
v -0.165503 0.266375 0.526512
v -0.165503 0.274348 0.487975
v -0.204070 0.266375 0.487975
v -0.165503 0.174292 0.004351
v -0.165503 0.166319 0.042889
v -0.204070 0.174292 0.042889
v -0.165503 0.274348 0.042889
v -0.165503 0.266375 0.004351
v -0.204070 0.266375 0.042889
v 0.279915 0.174292 0.526512
v 0.279915 0.166319 0.487974
v 0.318481 0.174292 0.487974
v 0.279915 0.274349 0.487975
v 0.279915 0.266376 0.526512
v 0.318481 0.266376 0.487975
v 0.318481 0.174292 0.042889
v 0.279915 0.166319 0.042889
v 0.279915 0.174292 0.004351
v 0.279915 0.274349 0.042889
v 0.318481 0.266376 0.042889
v 0.279915 0.266376 0.004351
v -0.339543 -0.006898 0.682212
v -0.339588 0.170048 0.672942
v -0.339543 -0.006898 -0.681632
v -0.339588 0.170048 -0.672362
v 0.358153 -0.006897 0.682212
v 0.316072 0.170048 0.672941
v 0.358152 -0.006897 -0.681632
v 0.316071 0.170048 -0.672362
v -0.339588 0.170048 0.530569
v -0.339588 0.170048 -0.531874
v 0.316071 0.170048 -0.542352
v 0.316072 0.170048 0.542932
v -0.208705 0.170048 -0.672362
v -0.198503 -0.006898 -0.681632
v -0.208704 0.170048 0.672942
v -0.198502 -0.006898 0.682212
v -0.208705 0.170048 -0.531874
v -0.208704 0.170048 0.530569
v -0.208705 0.361955 -0.672362
v -0.208704 0.361955 0.672942
v -0.339588 0.361955 0.672942
v -0.208705 0.362581 -0.531874
v -0.208704 0.362581 0.530569
v -0.339588 0.362581 0.530569
v -0.339588 0.361955 -0.672362
v -0.339588 0.362581 -0.531874
v 0.265428 0.361955 -0.672362
v 0.316071 0.311313 -0.672362
v 0.316071 0.311312 -0.542352
v 0.265428 0.361955 -0.542352
v 0.265429 0.361955 0.542932
v 0.316072 0.311313 0.542932
v 0.316072 0.311313 0.672941
v 0.265429 0.361955 0.672941
v -0.339588 0.398832 0.530569
v -0.339588 0.398832 -0.531874
v -0.208705 0.398832 -0.531874
v -0.208704 0.398832 0.530569
v -0.378741 0.558338 0.530569
v -0.378741 0.558338 -0.531874
v -0.208704 0.398832 0.635984
v -0.339588 0.398832 0.635984
v -0.208705 0.398832 -0.637288
v -0.339588 0.398832 -0.637288
v -0.378741 0.558338 0.635984
v -0.378741 0.558338 -0.637288
v -0.296163 0.571593 0.530569
v -0.242023 0.532430 0.530569
v -0.242023 0.532430 -0.531874
v -0.296164 0.571593 -0.531874
v -0.242023 0.532430 0.635984
v -0.296163 0.571593 0.635984
v -0.296164 0.571593 -0.637288
v -0.242023 0.532430 -0.637288
v -0.253198 0.606924 -0.470219
v -0.254911 0.579948 -0.470219
v -0.167306 0.596094 -0.470219
v -0.178524 0.620687 -0.470219
v -0.254911 0.579948 -0.041019
v -0.253198 0.606924 -0.041019
v -0.167306 0.596094 -0.041019
v -0.178524 0.620687 -0.041019
v -0.193558 0.283339 -0.507381
v -0.200024 0.282148 -0.470219
v -0.188806 0.257555 -0.470219
v -0.112419 0.298294 -0.470219
v -0.118884 0.297102 -0.507381
v -0.114132 0.271318 -0.470219
v -0.188806 0.257555 -0.041019
v -0.200024 0.282148 -0.041019
v -0.193558 0.283339 -0.003857
v -0.112419 0.298294 -0.041019
v -0.114132 0.271318 -0.041019
v -0.118884 0.297103 -0.003857
v -0.137050 0.431934 -0.041019
v -0.139535 0.409144 -0.003857
v -0.220674 0.394189 -0.041019
v -0.214208 0.395381 -0.003857
v -0.137050 0.431934 -0.470219
v -0.139535 0.409144 -0.507381
v -0.220674 0.394189 -0.470219
v -0.214208 0.395381 -0.507381
v -0.254911 0.579948 -0.567975
v -0.248446 0.581139 -0.622066
v -0.253198 0.606924 -0.567975
v -0.178524 0.620687 -0.567975
v -0.173772 0.594902 -0.622066
v -0.167306 0.596094 -0.567975
v -0.248445 0.581139 -0.002881
v -0.173772 0.594902 -0.002881
v -0.137050 0.431934 -0.567975
v -0.214208 0.395381 -0.622066
v -0.139535 0.409144 -0.622066
v -0.220674 0.394189 -0.567975
v -0.165504 0.174292 -0.525273
v -0.204070 0.174292 -0.486735
v -0.165504 0.166319 -0.486735
v -0.165504 0.266375 -0.525273
v -0.165504 0.274348 -0.486735
v -0.204070 0.266375 -0.486735
v -0.165504 0.174292 -0.003112
v -0.165504 0.166319 -0.041650
v -0.204070 0.174292 -0.041650
v -0.165504 0.274348 -0.041650
v -0.165504 0.266375 -0.003112
v -0.204070 0.266375 -0.041650
v 0.279914 0.174292 -0.525273
v 0.279914 0.166319 -0.486735
v 0.318480 0.174292 -0.486735
v 0.279914 0.274349 -0.486735
v 0.279914 0.266376 -0.525273
v 0.318480 0.266376 -0.486735
v 0.318480 0.174292 -0.041649
v 0.279914 0.166319 -0.041649
v 0.279914 0.174292 -0.003112
v 0.279914 0.274349 -0.041649
v 0.318480 0.266376 -0.041649
v 0.279914 0.266376 -0.003112
vn -0.983400 -0.181300 0.000000
vn 0.181300 -0.983400 -0.000000
vn 0.983400 0.181300 -0.000000
vn -0.998000 0.063400 0.000000
vn -0.000000 0.000000 -1.000000
vn -0.896700 -0.409000 0.169100
vn 0.983600 -0.062500 0.169100
vn -0.896700 -0.409000 -0.169100
vn 0.983600 -0.062500 -0.169100
vn 0.909800 0.415000 -0.000000
vn 0.968400 0.178500 -0.174200
vn 0.148100 -0.803600 -0.576500
vn 0.998000 -0.063400 -0.000000
vn 0.148100 -0.803600 0.576500
vn -0.909800 -0.415000 0.000000
vn -0.968400 -0.178500 0.174200
vn -0.181300 0.983400 0.000000
vn 0.968400 0.178500 0.174200
vn -0.968400 -0.178500 -0.174200
vn 0.994100 -0.108400 0.000000
vn -0.000000 0.000000 1.000000
vn -0.991100 0.062900 0.117100
vn 0.903600 0.412200 0.117100
vn 0.897400 0.409300 -0.164900
vn -0.163100 0.885000 0.436200
vn -0.149400 0.810400 -0.566500
vn 0.976300 0.179900 0.120700
vn -0.976300 -0.179900 0.120700
vn 0.000900 -0.005100 -1.000000
vn -0.968700 -0.179000 -0.172000
vn 0.000000 -1.000000 0.000000
vn 1.000000 0.000000 0.000000
vn -0.000000 1.000000 0.000000
vn -0.198400 -0.959800 0.198600
vn -0.198400 0.959800 0.198600
vn -0.198400 -0.959800 -0.198600
vn -0.198400 0.959800 -0.198600
vn 0.198400 -0.959800 0.198600
vn 0.198400 0.959800 0.198600
vn 0.198400 -0.959800 -0.198600
vn 0.198400 0.959800 -0.198600
vn -0.706800 -0.000000 0.707400
vn -0.202500 0.979300 0.000000
vn -0.706800 0.000000 -0.707400
vn -0.202500 -0.979300 0.000000
vn -0.000000 0.979300 -0.202600
vn 0.706800 0.000000 -0.707400
vn 0.000000 -0.979300 -0.202600
vn 0.202500 0.979300 0.000000
vn 0.706800 -0.000000 0.707400
vn 0.202500 -0.979300 0.000000
vn -0.000000 0.979300 0.202600
vn 0.000000 -0.979300 0.202600
vn -1.000000 0.000000 0.000000
vn -0.000000 0.052300 -0.998600
vn 0.000000 0.052300 0.998600
vn 0.972900 0.231400 -0.000000
vn 0.000600 1.000000 0.002300
vn 0.000000 1.000000 -0.004500
vn -0.000000 1.000000 0.004400
vn 0.020200 0.002700 0.999800
vn 0.023900 0.003100 -0.999700
vn 0.707100 0.707100 0.000000
vn 0.000600 1.000000 -0.002300
vn 0.970300 0.242000 -0.000000
vn -0.971200 -0.238400 0.000000
vn -0.158500 0.987400 -0.000000
vn 0.586100 0.810200 0.000000
vn -1.000000 -0.000300 0.000000
vn 0.968900 0.178100 -0.171900
vn -0.984300 0.062500 -0.164900
vn -0.991100 0.062900 -0.117100
vn 0.903600 0.412200 -0.117100
vn 0.897400 0.409300 0.164900
vn -0.163100 0.885000 -0.436200
vn -0.149400 0.810400 0.566500
vn 0.976300 0.179900 -0.120700
vn -0.976300 -0.179900 -0.120700
vn 0.000900 -0.005100 1.000000
vn -0.968700 -0.179000 0.172000
vn 0.968900 0.178100 0.171900
vn -0.984300 0.062500 0.164900
usemtl Sofa.003
s off
f 27//1 23//1 16//1 10//1
f 19//2 14//2 11//2 15//2
f 25//3 21//3 7//3 3//3
f 1//4 2//4 29//4 31//4
f 22//5 20//5 17//5 24//5
f 28//2 26//2 39//2 38//2
f 9//6 10//6 11//6
f 12//7 13//7 14//7
f 15//8 16//8 17//8
f 18//9 19//9 20//9
f 3//10 7//10 8//10 4//10
f 25//3 3//3 34//3 37//3
f 5//4 2//4 1//4 6//4
f 21//11 18//11 20//11 22//11
f 19//12 15//12 17//12 20//12
f 18//13 12//13 14//13 19//13
f 13//14 9//14 11//14 14//14
f 10//15 16//15 15//15 11//15
f 27//16 10//16 9//16 28//16
f 4//17 8//17 6//17 1//17
f 12//18 25//18 26//18 13//18
f 16//19 23//19 24//19 17//19
f 26//20 25//20 37//20 39//20
f 3//10 4//10 32//10 34//10
f 13//21 26//21 28//21 9//21
f 12//3 18//3 21//3 25//3
f 2//1 5//1 23//1 27//1
f 39//21 33//21 30//21 38//21
f 30//22 31//22 29//22
f 33//23 34//23 32//23
f 7//24 36//24 8//24
f 30//25 33//25 32//25 31//25
f 36//26 35//26 6//26 8//26
f 37//27 34//27 33//27 39//27
f 29//28 40//28 38//28 30//28
f 36//29 22//29 24//29 35//29
f 2//1 27//1 40//1 29//1
f 4//17 1//17 31//17 32//17
f 23//30 5//30 35//30 24//30
f 27//2 28//2 38//2 40//2
f 43//31 48//31 60//31 54//31
f 63//32 58//32 55//32 59//32
f 56//33 62//33 50//33 45//33
f 57//21 44//21 41//21 53//21
f 51//5 64//5 61//5 47//5
f 41//34 42//34 43//34
f 44//35 45//35 46//35
f 47//36 48//36 49//36
f 50//37 51//37 52//37
f 53//38 54//38 55//38
f 56//39 57//39 58//39
f 59//40 60//40 61//40
f 62//41 63//41 64//41
f 41//42 44//42 46//42 42//42
f 45//43 50//43 52//43 46//43
f 51//44 47//44 49//44 52//44
f 48//45 43//45 42//45 49//45
f 50//46 62//46 64//46 51//46
f 63//47 59//47 61//47 64//47
f 60//48 48//48 47//48 61//48
f 62//49 56//49 58//49 63//49
f 57//50 53//50 55//50 58//50
f 54//51 60//51 59//51 55//51
f 56//52 45//52 44//52 57//52
f 43//53 54//53 53//53 41//53
f 46//54 52//54 49//54 42//54
f 77//55 72//55 71//55 78//55
f 79//56 66//56 65//56 80//56
f 72//57 75//57 76//57 70//57 69//57 71//57
f 77//5 68//5 89//5 83//5
f 70//32 76//32 96//32 97//32
f 84//58 98//58 95//58 87//58
f 80//31 78//31 71//31 69//31
f 70//56 79//56 80//56 69//56
f 68//55 77//55 78//55 67//55
f 83//59 89//59 90//59 86//59
f 75//32 72//32 92//32 93//32
f 79//21 70//21 97//21 98//21 84//21
f 85//60 84//60 87//60 88//60
f 81//61 75//61 93//61 94//61 86//61
f 73//54 66//54 85//54 88//54
f 68//54 74//54 90//54 89//54
f 76//62 82//62 87//62 95//62 96//62
f 65//31 67//31 78//31 80//31
f 66//21 79//21 84//21 85//21
f 72//5 77//5 83//5 91//5 92//5
f 93//63 92//63 91//63 94//63
f 95//63 98//63 97//63 96//63
f 91//64 83//64 86//64 94//64
f 102//65 112//65 115//65 105//65
f 88//21 87//21 102//21 99//21
f 86//5 90//5 100//5 101//5
f 82//32 81//32 86//32 87//32
f 113//65 101//65 107//65 118//65
f 102//65 101//65 113//65 112//65
f 103//66 99//66 106//66 109//66
f 107//5 108//5 110//5 117//5 118//5
f 101//31 100//31 108//31 107//31
f 100//66 104//66 110//66 108//66
f 104//67 114//67 117//67 110//67
f 106//21 105//21 115//21 116//21 109//21
f 99//31 102//31 105//31 106//31
f 100//66 99//66 103//66 104//66
f 111//67 114//67 104//67 103//67
f 111//68 116//68 115//68 112//68
f 117//68 114//68 113//68 118//68
f 111//67 103//67 109//67 116//67
f 114//68 111//68 112//68 113//68
f 87//32 86//32 101//32 102//32
f 66//69 73//69 74//69 68//69 67//69 65//69
f 76//33 75//33 81//33 82//33
f 90//54 88//54 99//54 100//54
f 7//70 21//70 22//70 36//70
f 5//71 6//71 35//71
f 145//1 128//1 134//1 141//1
f 137//2 133//2 129//2 132//2
f 143//3 121//3 125//3 139//3
f 119//4 149//4 147//4 120//4
f 140//21 142//21 135//21 138//21
f 146//2 156//2 157//2 144//2
f 127//8 129//8 128//8
f 130//9 132//9 131//9
f 133//6 135//6 134//6
f 136//7 138//7 137//7
f 121//10 122//10 126//10 125//10
f 143//3 155//3 152//3 121//3
f 123//4 124//4 119//4 120//4
f 139//18 140//18 138//18 136//18
f 137//14 138//14 135//14 133//14
f 136//13 137//13 132//13 130//13
f 131//12 132//12 129//12 127//12
f 128//15 129//15 133//15 134//15
f 145//19 146//19 127//19 128//19
f 122//17 119//17 124//17 126//17
f 130//11 131//11 144//11 143//11
f 134//16 135//16 142//16 141//16
f 144//20 157//20 155//20 143//20
f 121//10 152//10 150//10 122//10
f 131//5 127//5 146//5 144//5
f 130//3 143//3 139//3 136//3
f 120//1 145//1 141//1 123//1
f 157//5 156//5 148//5 151//5
f 148//72 147//72 149//72
f 151//73 150//73 152//73
f 125//74 126//74 154//74
f 148//75 149//75 150//75 151//75
f 154//76 126//76 124//76 153//76
f 155//77 157//77 151//77 152//77
f 147//78 148//78 156//78 158//78
f 154//79 153//79 142//79 140//79
f 120//1 147//1 158//1 145//1
f 122//17 150//17 149//17 119//17
f 141//80 142//80 153//80 123//80
f 145//2 158//2 156//2 146//2
f 161//31 172//31 178//31 166//31
f 181//32 177//32 173//32 176//32
f 174//33 163//33 168//33 180//33
f 175//5 171//5 159//5 162//5
f 169//21 165//21 179//21 182//21
f 159//36 161//36 160//36
f 162//37 164//37 163//37
f 165//34 167//34 166//34
f 168//35 170//35 169//35
f 171//40 173//40 172//40
f 174//41 176//41 175//41
f 177//38 179//38 178//38
f 180//39 182//39 181//39
f 159//44 160//44 164//44 162//44
f 163//43 164//43 170//43 168//43
f 169//42 170//42 167//42 165//42
f 166//45 167//45 160//45 161//45
f 168//52 169//52 182//52 180//52
f 181//50 182//50 179//50 177//50
f 178//53 179//53 165//53 166//53
f 180//49 181//49 176//49 174//49
f 175//47 176//47 173//47 171//47
f 172//51 173//51 177//51 178//51
f 174//46 175//46 162//46 163//46
f 161//48 159//48 171//48 172//48
f 164//54 160//54 167//54 170//54
f 125//81 154//81 140//81 139//81
f 123//82 153//82 124//82
f 74//54 73//54 88//54 90//54
