# Blender v2.76 (sub 0) OBJ File: 'Stool.blend'
# www.blender.org
mtllib Stool.mtl
o Stool_Cube.015
v -0.145976 0.253433 0.145299
v -0.130552 0.410315 0.125135
v -0.145976 0.253433 0.065972
v -0.130552 0.410315 0.058269
v -0.070562 0.253433 0.145299
v -0.063685 0.410315 0.125135
v -0.070562 0.253433 0.065972
v -0.063685 0.410315 0.058269
v -0.130552 0.477057 0.125135
v -0.063685 0.477057 0.058269
v -0.159883 0.533604 0.156269
v -0.159883 0.477057 0.156269
v -0.151845 0.194105 0.071841
v -0.151845 0.194105 0.151168
v -0.076431 0.194105 0.071841
v -0.076431 0.194105 0.151168
v -0.183145 -0.012708 0.099229
v -0.183145 -0.012708 0.180512
v -0.101862 -0.012708 0.099229
v -0.101862 -0.012708 0.180512
v 0.145976 0.253433 0.145299
v 0.130552 0.410315 0.125135
v 0.145976 0.253433 0.065972
v 0.130552 0.410315 0.058269
v 0.070562 0.253433 0.145299
v 0.063685 0.410315 0.125135
v 0.070562 0.253433 0.065972
v 0.063685 0.410315 0.058269
v 0.130552 0.477057 0.125135
v 0.063685 0.477057 0.058269
v 0.159883 0.533604 0.156269
v 0.159883 0.477057 0.156269
v 0.000000 0.410315 0.058269
v 0.000000 0.410315 0.125135
v 0.000000 0.477057 0.058269
v 0.000000 0.477057 0.125135
v 0.000000 0.533604 0.156269
v 0.000000 0.477057 0.156269
v 0.151845 0.194105 0.071841
v 0.151845 0.194105 0.151168
v 0.076431 0.194105 0.071841
v 0.076431 0.194105 0.151168
v 0.183145 -0.012708 0.099229
v 0.183145 -0.012708 0.180512
v 0.101862 -0.012708 0.099229
v 0.101862 -0.012708 0.180512
v -0.145976 0.253433 -0.145299
v -0.130552 0.410315 -0.125135
v -0.145976 0.253433 -0.065972
v -0.130552 0.410315 -0.058269
v -0.070562 0.253433 -0.145299
v -0.063685 0.410315 -0.125135
v -0.070562 0.253433 -0.065972
v -0.063685 0.410315 -0.058269
v -0.130552 0.477057 -0.125135
v -0.063685 0.477057 -0.058269
v -0.159883 0.533604 -0.156269
v -0.159883 0.477057 -0.156269
v -0.130552 0.410315 0.000000
v -0.063685 0.410315 0.000000
v -0.130552 0.477057 0.000000
v -0.063685 0.477057 0.000000
v -0.159883 0.533604 0.000000
v -0.159883 0.477057 0.000000
v -0.151845 0.194105 -0.071841
v -0.151845 0.194105 -0.151168
v -0.076431 0.194105 -0.071841
v -0.076431 0.194105 -0.151168
v -0.183145 -0.012708 -0.099229
v -0.183145 -0.012708 -0.180512
v -0.101862 -0.012708 -0.099229
v -0.101862 -0.012708 -0.180512
v 0.145976 0.253433 -0.145299
v 0.130552 0.410315 -0.125135
v 0.145976 0.253433 -0.065972
v 0.130552 0.410315 -0.058269
v 0.070562 0.253433 -0.145299
v 0.063685 0.410315 -0.125135
v 0.070562 0.253433 -0.065972
v 0.063685 0.410315 -0.058269
v 0.130552 0.477057 -0.125135
v 0.063685 0.477057 -0.058269
v 0.159883 0.533604 -0.156269
v 0.159883 0.477057 -0.156269
v 0.000000 0.410315 -0.058269
v 0.000000 0.410315 -0.125135
v 0.000000 0.477057 -0.058269
v 0.000000 0.477057 -0.125135
v 0.000000 0.533604 -0.156269
v 0.000000 0.477057 -0.156269
v 0.130552 0.410315 0.000000
v 0.063685 0.410315 0.000000
v 0.130552 0.477057 0.000000
v 0.063685 0.477057 0.000000
v 0.159883 0.533604 0.000000
v 0.159883 0.477057 0.000000
v 0.000000 0.477057 0.000000
v 0.000000 0.533604 0.000000
v 0.151845 0.194105 -0.071841
v 0.151845 0.194105 -0.151168
v 0.076431 0.194105 -0.071841
v 0.076431 0.194105 -0.151168
v 0.183145 -0.012708 -0.099229
v 0.183145 -0.012708 -0.180512
v 0.101862 -0.012708 -0.099229
v 0.101862 -0.012708 -0.180512
vn -0.995200 0.097800 0.000000
vn 0.000000 -0.049000 -0.998800
vn 0.999000 -0.043800 0.000000
vn 0.000000 0.127500 0.991800
vn -0.995100 0.098400 0.000000
vn 0.000000 -1.000000 0.000000
vn 1.000000 0.000000 0.000000
vn 0.000000 0.000000 -1.000000
vn 0.000000 0.000000 1.000000
vn -1.000000 0.000000 0.000000
vn 0.992500 -0.122000 0.000000
vn 0.000000 0.098400 0.995100
vn 0.000000 1.000000 0.000000
vn -0.988700 0.149600 0.000000
vn 0.000000 0.140500 0.990100
vn 0.000000 -0.131300 -0.991300
vn 0.995200 0.097800 0.000000
vn -0.999000 -0.043800 0.000000
vn 0.995100 0.098400 0.000000
vn -0.992500 -0.122000 0.000000
vn 0.000000 -0.098400 -0.995100
vn 0.988700 0.149600 0.000000
vn 0.000000 -0.049000 0.998800
vn 0.000000 0.127500 -0.991800
vn 0.995100 -0.098400 0.000000
vn 0.000000 0.098400 -0.995100
vn 0.000000 0.140500 -0.990100
vn 0.000000 -0.131300 0.991300
vn -0.995100 -0.098400 0.000000
vn 0.000000 -0.098400 0.995100
usemtl DarkWood.008
s off
f 2//1 4//1 3//1 1//1
f 4//2 8//2 7//2 3//2
f 8//3 6//3 5//3 7//3
f 6//4 2//4 1//4 5//4
f 1//5 3//5 13//5 14//5
f 6//6 8//6 33//6 34//6
f 8//6 4//6 59//6 60//6
f 10//7 8//7 60//7 62//7
f 8//8 10//8 35//8 33//8
f 9//9 6//9 34//9 36//9
f 2//9 6//9 9//9
f 4//10 9//10 61//10 59//10
f 4//10 2//10 9//10
f 15//11 16//11 20//11 19//11
f 5//12 1//12 14//12 16//12
f 49//13 3//13 7//13 53//13
f 16//6 15//6 41//6 42//6
f 25//12 5//12 16//12 42//12
f 67//6 15//6 13//6 65//6
f 13//5 3//5 49//5 65//5
f 75//13 79//13 27//13 23//13
f 18//6 17//6 19//6 20//6
f 14//14 13//14 17//14 18//14
f 16//15 14//15 18//15 20//15
f 13//16 15//16 19//16 17//16
f 22//17 21//17 23//17 24//17
f 24//2 23//2 27//2 28//2
f 28//18 27//18 25//18 26//18
f 26//4 25//4 21//4 22//4
f 21//19 40//19 39//19 23//19
f 26//6 34//6 33//6 28//6
f 28//6 92//6 91//6 24//6
f 30//10 94//10 92//10 28//10
f 28//8 33//8 35//8 30//8
f 29//9 36//9 34//9 26//9
f 22//9 29//9 26//9
f 24//7 91//7 93//7 29//7
f 24//7 29//7 22//7
f 41//20 45//20 46//20 42//20
f 25//12 42//12 40//12 21//12
f 41//21 15//21 7//21 27//21
f 101//6 99//6 39//6 41//6
f 39//19 99//19 75//19 23//19
f 79//13 77//13 51//13 53//13
f 44//6 46//6 45//6 43//6
f 40//22 44//22 43//22 39//22
f 42//15 46//15 44//15 40//15
f 39//16 43//16 45//16 41//16
f 48//1 47//1 49//1 50//1
f 50//23 49//23 53//23 54//23
f 54//3 53//3 51//3 52//3
f 52//24 51//24 47//24 48//24
f 47//5 66//5 65//5 49//5
f 52//6 86//6 85//6 54//6
f 54//6 60//6 59//6 50//6
f 56//7 62//7 60//7 54//7
f 54//9 85//9 87//9 56//9
f 55//8 88//8 86//8 52//8
f 48//8 55//8 52//8
f 50//10 59//10 61//10 55//10
f 50//10 55//10 48//10
f 67//11 71//11 72//11 68//11
f 53//25 7//25 15//25 67//25
f 51//26 68//26 66//26 47//26
f 68//6 102//6 101//6 67//6
f 77//26 102//26 68//26 51//26
f 70//6 72//6 71//6 69//6
f 66//14 70//14 69//14 65//14
f 68//27 72//27 70//27 66//27
f 65//28 69//28 71//28 67//28
f 74//17 76//17 75//17 73//17
f 76//23 80//23 79//23 75//23
f 80//18 78//18 77//18 79//18
f 78//24 74//24 73//24 77//24
f 73//19 75//19 99//19 100//19
f 78//6 80//6 85//6 86//6
f 80//6 76//6 91//6 92//6
f 82//10 80//10 92//10 94//10
f 80//9 82//9 87//9 85//9
f 81//8 78//8 86//8 88//8
f 74//8 78//8 81//8
f 76//7 81//7 93//7 91//7
f 76//7 74//7 81//7
f 101//20 102//20 106//20 105//20
f 79//29 101//29 41//29 27//29
f 77//26 73//26 100//26 102//26
f 101//30 79//30 53//30 67//30
f 27//13 7//13 5//13 25//13
f 104//6 103//6 105//6 106//6
f 100//22 99//22 103//22 104//22
f 102//27 100//27 104//27 106//27
f 99//28 101//28 105//28 103//28
usemtl Wood.010
f 11//13 37//13 98//13
f 61//6 9//6 12//6 64//6
f 9//6 36//6 38//6 12//6
f 35//6 10//6 97//6
f 10//6 62//6 97//6
f 63//13 11//13 98//13
f 64//10 12//10 11//10 63//10
f 12//9 38//9 37//9 11//9
f 31//13 98//13 37//13
f 93//6 96//6 32//6 29//6
f 29//6 32//6 38//6 36//6
f 35//6 97//6 30//6
f 30//6 97//6 94//6
f 95//13 98//13 31//13
f 96//7 95//7 31//7 32//7
f 32//9 31//9 37//9 38//9
f 57//13 98//13 89//13
f 61//6 64//6 58//6 55//6
f 55//6 58//6 90//6 88//6
f 87//6 97//6 56//6
f 56//6 97//6 62//6
f 63//13 98//13 57//13
f 64//10 63//10 57//10 58//10
f 58//8 57//8 89//8 90//8
f 83//13 89//13 98//13
f 93//6 81//6 84//6 96//6
f 81//6 88//6 90//6 84//6
f 87//6 82//6 97//6
f 82//6 94//6 97//6
f 95//13 83//13 98//13
f 96//7 84//7 83//7 95//7
f 84//8 90//8 89//8 83//8
l 97 98
