# Blender v2.76 (sub 0) OBJ File: 'Table.blend'
# www.blender.org
mtllib Table.mtl
o Table_Cube.001
v -0.530837 -0.005166 0.484190
v -0.523629 0.494379 0.476982
v -0.530837 -0.005166 0.402907
v -0.523629 0.494379 0.410116
v -0.449554 -0.005166 0.484190
v -0.456762 0.494379 0.476982
v -0.449554 -0.005166 0.402907
v -0.456762 0.494379 0.410116
v -0.523629 0.561121 0.476982
v -0.456762 0.561121 0.410116
v -0.552960 0.617669 0.508116
v -0.552960 0.561121 0.508116
v 0.530837 -0.005166 0.484190
v 0.523629 0.494379 0.476982
v 0.530837 -0.005166 0.402907
v 0.523629 0.494379 0.410116
v 0.449554 -0.005166 0.484190
v 0.456762 0.494379 0.476982
v 0.449554 -0.005166 0.402907
v 0.456762 0.494379 0.410116
v 0.523629 0.561121 0.476982
v 0.456762 0.561121 0.410116
v 0.000000 0.494379 0.410116
v 0.000000 0.494379 0.476982
v 0.000000 0.561121 0.410116
v 0.000000 0.561121 0.476982
v 0.552960 0.617669 0.508116
v 0.000000 0.617669 0.508116
v 0.552960 0.561121 0.508116
v 0.000000 0.561121 0.508116
v -0.530837 -0.005166 -0.484190
v -0.523629 0.494379 -0.476982
v -0.530837 -0.005166 -0.402907
v -0.523629 0.494379 -0.410116
v -0.449554 -0.005166 -0.484190
v -0.456762 0.494379 -0.476982
v -0.449554 -0.005166 -0.402907
v -0.456762 0.494379 -0.410116
v -0.523629 0.561121 -0.476982
v -0.456762 0.561121 -0.410116
v -0.523629 0.494379 0.000000
v -0.456762 0.494379 0.000000
v -0.523629 0.561121 0.000000
v -0.456762 0.561121 0.000000
v -0.552960 0.617669 -0.508116
v -0.552960 0.617669 0.000000
v -0.552960 0.561121 -0.508116
v -0.552960 0.561121 0.000000
v 0.530837 -0.005166 -0.484190
v 0.523629 0.494379 -0.476982
v 0.530837 -0.005166 -0.402907
v 0.523629 0.494379 -0.410116
v 0.449554 -0.005166 -0.484190
v 0.456762 0.494379 -0.476982
v 0.449554 -0.005166 -0.402907
v 0.456762 0.494379 -0.410116
v 0.523629 0.561121 -0.476982
v 0.456762 0.561121 -0.410116
v 0.523629 0.494379 0.000000
v 0.456762 0.494379 0.000000
v 0.523629 0.561121 0.000000
v 0.456762 0.561121 0.000000
v 0.000000 0.494379 -0.410116
v 0.000000 0.494379 -0.476982
v 0.000000 0.561121 -0.410116
v 0.000000 0.561121 -0.476982
v 0.552960 0.617669 -0.508116
v 0.552960 0.617669 0.000000
v 0.000000 0.617669 -0.508116
v 0.000000 0.561121 0.000000
v 0.000000 0.617669 0.000000
v 0.552960 0.561121 -0.508116
v 0.000000 0.561121 -0.508116
v 0.552960 0.561121 0.000000
vn -0.999900 0.014400 0.000000
vn 0.000000 0.014400 -0.999900
vn 0.999900 0.014400 0.000000
vn 0.000000 0.014400 0.999900
vn 0.000000 -1.000000 0.000000
vn 1.000000 0.000000 0.000000
vn 0.000000 0.000000 -1.000000
vn 0.000000 0.000000 1.000000
vn -1.000000 -0.000000 0.000000
vn 0.000000 1.000000 0.000000
usemtl DarkWood.012
s off
f 2//1 4//1 3//1 1//1
f 4//2 8//2 7//2 3//2
f 8//3 6//3 5//3 7//3
f 6//4 2//4 1//4 5//4
f 1//5 3//5 7//5 5//5
f 6//5 8//5 23//5 24//5
f 8//5 4//5 41//5 42//5
f 10//6 8//6 42//6 44//6
f 8//7 10//7 25//7 23//7
f 9//8 6//8 24//8 26//8
f 2//8 6//8 9//8
f 4//9 9//9 43//9 41//9
f 4//9 2//9 9//9
f 14//3 13//3 15//3 16//3
f 16//2 15//2 19//2 20//2
f 20//1 19//1 17//1 18//1
f 18//4 17//4 13//4 14//4
f 13//5 17//5 19//5 15//5
f 18//5 24//5 23//5 20//5
f 20//5 60//5 59//5 16//5
f 22//9 62//9 60//9 20//9
f 20//7 23//7 25//7 22//7
f 21//8 26//8 24//8 18//8
f 14//8 21//8 18//8
f 16//6 59//6 61//6 21//6
f 16//6 21//6 14//6
f 32//1 31//1 33//1 34//1
f 34//4 33//4 37//4 38//4
f 38//3 37//3 35//3 36//3
f 36//2 35//2 31//2 32//2
f 31//5 35//5 37//5 33//5
f 36//5 64//5 63//5 38//5
f 38//5 42//5 41//5 34//5
f 40//6 44//6 42//6 38//6
f 38//8 63//8 65//8 40//8
f 39//7 66//7 64//7 36//7
f 32//7 39//7 36//7
f 34//9 41//9 43//9 39//9
f 34//9 39//9 32//9
f 50//3 52//3 51//3 49//3
f 52//4 56//4 55//4 51//4
f 56//1 54//1 53//1 55//1
f 54//2 50//2 49//2 53//2
f 49//5 51//5 55//5 53//5
f 54//5 56//5 63//5 64//5
f 56//5 52//5 59//5 60//5
f 58//9 56//9 60//9 62//9
f 56//8 58//8 65//8 63//8
f 57//7 54//7 64//7 66//7
f 50//7 54//7 57//7
f 52//6 57//6 61//6 59//6
f 52//6 50//6 57//6
usemtl Wood.014
f 11//10 28//10 71//10
f 43//5 9//5 12//5 48//5
f 9//5 26//5 30//5 12//5
f 25//5 10//5 70//5
f 10//5 44//5 70//5
f 46//10 11//10 71//10
f 48//9 12//9 11//9 46//9
f 12//8 30//8 28//8 11//8
f 27//10 71//10 28//10
f 61//5 74//5 29//5 21//5
f 21//5 29//5 30//5 26//5
f 25//5 70//5 22//5
f 22//5 70//5 62//5
f 68//10 71//10 27//10
f 74//6 68//6 27//6 29//6
f 29//8 27//8 28//8 30//8
f 45//10 71//10 69//10
f 43//5 48//5 47//5 39//5
f 39//5 47//5 73//5 66//5
f 65//5 70//5 40//5
f 40//5 70//5 44//5
f 46//10 71//10 45//10
f 48//9 46//9 45//9 47//9
f 47//7 45//7 69//7 73//7
f 67//10 69//10 71//10
f 61//5 57//5 72//5 74//5
f 57//5 66//5 73//5 72//5
f 65//5 58//5 70//5
f 58//5 62//5 70//5
f 68//10 67//10 71//10
f 74//6 72//6 67//6 68//6
f 72//7 73//7 69//7 67//7
l 70 71
